<svg width="3300" height="2200" viewBox="0 0 3300 2200" fill="none" xmlns="http://www.w3.org/2000/svg">
<rect width="3300" height="2200" fill="#1E1E1E"/>
<g id="cuyor.menu.icon" clip-path="url(#clip0_0_1)">
<g id="Notes">
<path id="artboard" d="M3300 0H0V2200H3300V0Z" fill="white"/>
<path id="Vector" d="M263 292H3036" stroke="black" stroke-width="0.5"/>
<text id="Weight/Scale Variations" fill="black" style="white-space: pre" xml:space="preserve" font-family="Inter" font-size="13" font-weight="bold" letter-spacing="0em"><tspan x="263" y="321.727">Weight/Scale Variations</tspan></text>
<text id="Ultralight" fill="black" style="white-space: pre" xml:space="preserve" font-family="Inter" font-size="13" letter-spacing="0em"><tspan x="531.661" y="321.727">Ultralight</tspan></text>
<text id="Thin" fill="black" style="white-space: pre" xml:space="preserve" font-family="Inter" font-size="13" letter-spacing="0em"><tspan x="843.066" y="321.727">Thin</tspan></text>
<text id="Light" fill="black" style="white-space: pre" xml:space="preserve" font-family="Inter" font-size="13" letter-spacing="0em"><tspan x="1137.77" y="321.727">Light</tspan></text>
<text id="Regular" fill="black" style="white-space: pre" xml:space="preserve" font-family="Inter" font-size="13" letter-spacing="0em"><tspan x="1426.58" y="321.727">Regular</tspan></text>
<text id="Medium" fill="black" style="white-space: pre" xml:space="preserve" font-family="Inter" font-size="13" letter-spacing="0em"><tspan x="1721.99" y="321.727">Medium</tspan></text>
<text id="Semibold" fill="black" style="white-space: pre" xml:space="preserve" font-family="Inter" font-size="13" letter-spacing="0em"><tspan x="2014.65" y="321.727">Semibold</tspan></text>
<text id="Bold" fill="black" style="white-space: pre" xml:space="preserve" font-family="Inter" font-size="13" letter-spacing="0em"><tspan x="2326.29" y="321.727">Bold</tspan></text>
<text id="Heavy" fill="black" style="white-space: pre" xml:space="preserve" font-family="Inter" font-size="13" letter-spacing="0em"><tspan x="2617.32" y="321.727">Heavy</tspan></text>
<text id="Black" fill="black" style="white-space: pre" xml:space="preserve" font-family="Inter" font-size="13" letter-spacing="0em"><tspan x="2916.8" y="321.727">Black</tspan></text>
<path id="Vector_2" d="M263 1903H3036" stroke="black" stroke-width="0.5"/>
<g id="Group">
<path id="Vector_3" d="M272.248 1933.83C276.604 1933.83 280.139 1930.3 280.139 1925.95C280.139 1921.59 276.604 1918.07 272.248 1918.07C267.902 1918.07 264.367 1921.59 264.367 1925.95C264.367 1930.3 267.902 1933.83 272.248 1933.83ZM272.248 1932.35C268.713 1932.35 265.861 1929.48 265.861 1925.95C265.861 1922.41 268.713 1919.55 272.248 1919.55C275.783 1919.55 278.645 1922.41 278.645 1925.95C278.645 1929.48 275.783 1932.35 272.248 1932.35ZM272.971 1928.79V1923.1C272.971 1922.65 272.678 1922.35 272.229 1922.35C271.799 1922.35 271.506 1922.65 271.506 1923.1V1928.79C271.506 1929.23 271.799 1929.53 272.229 1929.53C272.678 1929.53 272.971 1929.23 272.971 1928.79ZM269.406 1926.67H275.09C275.529 1926.67 275.832 1926.38 275.832 1925.95C275.832 1925.51 275.529 1925.21 275.09 1925.21H269.406C268.957 1925.21 268.654 1925.51 268.654 1925.95C268.654 1926.38 268.957 1926.67 269.406 1926.67Z" fill="black"/>
</g>
<g id="Group_2">
<path id="Vector_4" d="M293.215 1935.91C298.713 1935.91 303.176 1931.45 303.176 1925.95C303.176 1920.45 298.713 1915.99 293.215 1915.99C287.717 1915.99 283.254 1920.45 283.254 1925.95C283.254 1931.45 287.717 1935.91 293.215 1935.91ZM293.215 1934.25C288.625 1934.25 284.914 1930.54 284.914 1925.95C284.914 1921.36 288.625 1917.65 293.215 1917.65C297.805 1917.65 301.516 1921.36 301.516 1925.95C301.516 1930.54 297.805 1934.25 293.215 1934.25ZM294.025 1929.63V1922.25C294.025 1921.75 293.684 1921.41 293.195 1921.41C292.717 1921.41 292.385 1921.75 292.385 1922.25V1929.63C292.385 1930.12 292.717 1930.46 293.195 1930.46C293.684 1930.46 294.025 1930.13 294.025 1929.63ZM289.514 1926.75H296.906C297.395 1926.75 297.736 1926.43 297.736 1925.95C297.736 1925.46 297.395 1925.12 296.906 1925.12H289.514C289.016 1925.12 288.684 1925.46 288.684 1925.95C288.684 1926.43 289.016 1926.75 289.514 1926.75Z" fill="black"/>
</g>
<g id="Group_3">
<path id="Vector_5" d="M319.895 1938.66C326.916 1938.66 332.619 1932.97 332.619 1925.95C332.619 1918.93 326.916 1913.22 319.895 1913.22C312.873 1913.22 307.18 1918.93 307.18 1925.95C307.18 1932.97 312.873 1938.66 319.895 1938.66ZM319.895 1936.85C313.869 1936.85 308.996 1931.97 308.996 1925.95C308.996 1919.92 313.869 1915.05 319.895 1915.05C325.92 1915.05 330.793 1919.92 330.793 1925.95C330.793 1931.97 325.92 1936.85 319.895 1936.85ZM320.783 1930.78V1921.09C320.783 1920.54 320.412 1920.16 319.875 1920.16C319.357 1920.16 318.986 1920.54 318.986 1921.09V1930.78C318.986 1931.32 319.357 1931.7 319.875 1931.7C320.412 1931.7 320.783 1931.33 320.783 1930.78ZM315.041 1926.83H324.738C325.275 1926.83 325.656 1926.47 325.656 1925.95C325.656 1925.4 325.285 1925.03 324.738 1925.03H315.041C314.494 1925.03 314.123 1925.4 314.123 1925.95C314.123 1926.47 314.494 1926.83 315.041 1926.83Z" fill="black"/>
</g>
<text id="Design Variations" fill="black" style="white-space: pre" xml:space="preserve" font-family="Inter" font-size="13" font-weight="bold" letter-spacing="0em"><tspan x="263" y="1952.73">Design Variations</tspan></text>
<text id="Symbols are supported in up to nine weights and three scales." fill="black" style="white-space: pre" xml:space="preserve" font-family="Inter" font-size="13" letter-spacing="0em"><tspan x="263" y="1970.73">Symbols are supported in up to nine weights and three scales.</tspan></text>
<text id="For optimal layout with text and other symbols, vertically align" fill="black" style="white-space: pre" xml:space="preserve" font-family="Inter" font-size="13" letter-spacing="0em"><tspan x="263" y="1988.73">For optimal layout with text and other symbols, vertically align</tspan></text>
<text id="symbols with the adjacent text." fill="black" style="white-space: pre" xml:space="preserve" font-family="Inter" font-size="13" letter-spacing="0em"><tspan x="263" y="2006.73">symbols with the adjacent text.</tspan></text>
<path id="Vector_6" d="M776 1919V1933" stroke="#00AEEF" stroke-width="0.5"/>
<g id="Group_4">
<path id="Vector_7" d="M779.311 1933.16C779.828 1933.16 780.082 1932.96 780.268 1932.41L784.379 1920.91H784.428L788.549 1932.41C788.734 1932.96 788.988 1933.16 789.496 1933.16C790.014 1933.16 790.346 1932.84 790.346 1932.36C790.346 1932.19 790.316 1932.03 790.238 1931.83L785.658 1919.63C785.434 1919.04 785.033 1918.73 784.408 1918.73C783.803 1918.73 783.393 1919.03 783.178 1919.62L778.598 1931.84C778.52 1932.04 778.49 1932.2 778.49 1932.37C778.49 1932.85 778.803 1933.16 779.311 1933.16ZM781.352 1928.97H787.484C787.885 1928.97 788.217 1928.63 788.217 1928.23C788.217 1927.82 787.885 1927.5 787.484 1927.5H781.352C780.951 1927.5 780.619 1927.82 780.619 1928.23C780.619 1928.63 780.951 1928.97 781.352 1928.97Z" fill="black"/>
</g>
<path id="Vector_8" d="M792.836 1919V1933" stroke="#00AEEF" stroke-width="0.5"/>
<text id="Margins" fill="black" style="white-space: pre" xml:space="preserve" font-family="Inter" font-size="13" font-weight="bold" letter-spacing="0em"><tspan x="776" y="1952.73">Margins</tspan></text>
<text id="Leading and trailing margins on the left and right side of each symbol" fill="black" style="white-space: pre" xml:space="preserve" font-family="Inter" font-size="13" letter-spacing="0em"><tspan x="776" y="1970.73">Leading and trailing margins on the left and right side of each symbol</tspan></text>
<text id="can be adjusted by modifying the x-location of the margin guidelines." fill="black" style="white-space: pre" xml:space="preserve" font-family="Inter" font-size="13" letter-spacing="0em"><tspan x="776" y="1988.73">can be adjusted by modifying the x-location of the margin guidelines.</tspan></text>
<text id="Modifications are automatically applied proportionally to all" fill="black" style="white-space: pre" xml:space="preserve" font-family="Inter" font-size="13" letter-spacing="0em"><tspan x="776" y="2006.73">Modifications are automatically applied proportionally to all</tspan></text>
<text id="scales and weights." fill="black" style="white-space: pre" xml:space="preserve" font-family="Inter" font-size="13" letter-spacing="0em"><tspan x="776" y="2024.73">scales and weights.</tspan></text>
<g id="Group_5">
<path id="Vector_9" d="M1291.84 1935.63L1293.41 1937.2C1294.27 1938.08 1295.28 1938.02 1296.19 1936.99L1308.33 1923.35L1307.35 1922.37L1295.3 1935.91C1294.94 1936.3 1294.61 1936.4 1294.14 1935.93L1293.1 1934.9C1292.64 1934.45 1292.74 1934.11 1293.14 1933.74L1306.64 1921.31L1305.66 1920.34L1292.05 1932.86C1291.05 1933.78 1290.98 1934.76 1291.84 1935.63ZM1300.82 1916.13C1300.41 1916.54 1300.37 1917.11 1300.6 1917.49C1300.83 1917.85 1301.3 1918.1 1301.92 1917.94C1303.09 1917.61 1304.44 1917.46 1305.7 1918.13L1305.16 1919.55C1304.84 1920.35 1305.02 1920.93 1305.5 1921.44L1307.56 1923.5C1308.02 1923.98 1308.46 1923.99 1308.97 1923.89L1309.86 1923.74L1310.38 1924.25L1310.34 1924.7C1310.32 1925.16 1310.45 1925.56 1310.89 1926L1311.57 1926.66C1312.03 1927.12 1312.67 1927.16 1313.13 1926.7L1315.73 1924.09C1316.19 1923.62 1316.16 1923.02 1315.69 1922.56L1315.01 1921.88C1314.57 1921.44 1314.2 1921.27 1313.74 1921.3L1313.27 1921.35L1312.78 1920.86L1312.98 1919.92C1313.11 1919.38 1312.94 1918.93 1312.41 1918.4L1310.15 1916.16C1307.56 1913.6 1303.03 1913.96 1300.82 1916.13ZM1302.23 1916.54C1303.99 1915.27 1307.43 1915.41 1308.97 1916.94L1311.43 1919.38C1311.64 1919.58 1311.68 1919.74 1311.62 1920.04L1311.32 1921.37L1312.67 1922.71L1313.55 1922.66C1313.78 1922.65 1313.85 1922.67 1314.02 1922.83L1314.53 1923.33L1312.36 1925.5L1311.86 1925C1311.7 1924.83 1311.67 1924.76 1311.68 1924.52L1311.73 1923.65L1310.4 1922.31L1309.03 1922.54C1308.75 1922.6 1308.62 1922.58 1308.39 1922.37L1306.61 1920.59C1306.39 1920.38 1306.37 1920.25 1306.51 1919.91L1307.43 1917.62C1306.21 1916.35 1304.02 1916.12 1302.31 1916.7C1302.17 1916.75 1302.13 1916.62 1302.23 1916.54Z" fill="black"/>
</g>
<text id="Exporting" fill="black" style="white-space: pre" xml:space="preserve" font-family="Inter" font-size="13" font-weight="bold" letter-spacing="0em"><tspan x="1289" y="1952.73">Exporting</tspan></text>
<text id="Symbols should be outlined when exporting to ensure the" fill="black" style="white-space: pre" xml:space="preserve" font-family="Inter" font-size="13" letter-spacing="0em"><tspan x="1289" y="1970.73">Symbols should be outlined when exporting to ensure the</tspan></text>
<text id="design is preserved when submitting to Xcode." fill="black" style="white-space: pre" xml:space="preserve" font-family="Inter" font-size="13" letter-spacing="0em"><tspan x="1289" y="1988.73">design is preserved when submitting to Xcode.</tspan></text>
<text id="template-version" fill="black" style="white-space: pre" xml:space="preserve" font-family="Inter" font-size="13" letter-spacing="0em"><tspan x="2948.26" y="1932.73">Template v.7.0</tspan></text>
<text id="Requires Xcode 26 or greater" fill="black" style="white-space: pre" xml:space="preserve" font-family="Inter" font-size="13" letter-spacing="0em"><tspan x="2856.34" y="1950.73">Requires Xcode 26 or greater</tspan></text>
<text id="descriptive-name" fill="black" style="white-space: pre" xml:space="preserve" font-family="Inter" font-size="13" letter-spacing="0em"><tspan x="2844.2" y="1968.73">Generated from custom.play.fill</tspan></text>
<text id="Typeset at 100.0 points" fill="black" style="white-space: pre" xml:space="preserve" font-family="Inter" font-size="13" letter-spacing="0em"><tspan x="2892.56" y="1986.73">Typeset at 100.0 points</tspan></text>
<text id="Small" fill="black" style="white-space: pre" xml:space="preserve" font-family="Inter" font-size="13" letter-spacing="0em"><tspan x="263" y="725.727">Small</tspan></text>
<text id="Medium_2" fill="black" style="white-space: pre" xml:space="preserve" font-family="Inter" font-size="13" letter-spacing="0em"><tspan x="263" y="1155.73">Medium</tspan></text>
<text id="Large" fill="black" style="white-space: pre" xml:space="preserve" font-family="Inter" font-size="13" letter-spacing="0em"><tspan x="263" y="1585.73">Large</tspan></text>
</g>
<g id="Guides">
<g id="H-reference">
<path id="Vector_10" d="M339.994 696H342.638L368.329 628.868H369.031V625.541H367.123L339.994 696ZM350.689 671.52H385.982L385.232 669.272H351.439L350.689 671.52ZM394.12 696H396.764L369.639 625.541H368.433V628.868L394.12 696Z" fill="#27AAE1"/>
</g>
<path id="Baseline-S" d="M263 696H3036" stroke="#27AAE1" stroke-width="0.5"/>
<path id="Capline-S" d="M263 625.541H3036" stroke="#27AAE1" stroke-width="0.5"/>
<g id="H-reference_2">
<path id="Vector_11" d="M339.994 1126H342.638L368.329 1058.87H369.031V1055.54H367.123L339.994 1126ZM350.689 1101.52H385.982L385.232 1099.27H351.439L350.689 1101.52ZM394.12 1126H396.764L369.639 1055.54H368.433V1058.87L394.12 1126Z" fill="#27AAE1"/>
</g>
<path id="Baseline-M" d="M263 1126H3036" stroke="#27AAE1" stroke-width="0.5"/>
<path id="Capline-M" d="M263 1055.54H3036" stroke="#27AAE1" stroke-width="0.5"/>
<g id="H-reference_3">
<path id="Vector_12" d="M339.994 1556H342.638L368.329 1488.87H369.031V1485.54H367.123L339.994 1556ZM350.689 1531.52H385.982L385.232 1529.27H351.439L350.689 1531.52ZM394.12 1556H396.764L369.639 1485.54H368.433V1488.87L394.12 1556Z" fill="#27AAE1"/>
</g>
<path id="Baseline-L" d="M263 1556H3036" stroke="#27AAE1" stroke-width="0.5"/>
<path id="Capline-L" d="M263 1485.54H3036" stroke="#27AAE1" stroke-width="0.5"/>
<path id="right-margin-Black-S" d="M2973.49 600.785V720.121" stroke="#00AEEF" stroke-width="0.5"/>
<path id="left-margin-Black-S" d="M2893.31 600.785V720.121" stroke="#00AEEF" stroke-width="0.5"/>
<path id="right-margin-Regular-S" d="M1484.56 600.785V720.121" stroke="#00AEEF" stroke-width="0.5"/>
<path id="left-margin-Regular-S" d="M1415.13 600.785V720.121" stroke="#00AEEF" stroke-width="0.5"/>
<path id="right-margin-Ultralight-S" d="M591.885 600.785V720.121" stroke="#00AEEF" stroke-width="0.5"/>
<path id="left-margin-Ultralight-S" d="M527.537 600.785V720.121" stroke="#00AEEF" stroke-width="0.5"/>
</g>
<g id="Symbols">
<g id="Black-S">
<g id="Vector_13">
<path d="M2923.99 644.362C2925.26 644.083 2926.57 644.161 2927.8 644.585L2927.91 644.628L2927.99 644.658L2953.35 654.41C2953.38 654.42 2953.4 654.431 2953.43 654.442C2954.66 654.935 2955.72 655.763 2956.49 656.83L2956.56 656.934L2956.56 656.935C2957.32 658.017 2957.75 659.29 2957.81 660.606L2957.82 660.734V660.736C2957.86 662.096 2957.5 663.44 2956.79 664.603C2956.08 665.764 2955.04 666.693 2953.81 667.276C2953.79 667.288 2953.76 667.3 2953.74 667.312L2946.3 670.691C2945.72 670.957 2945.25 671.425 2944.98 672.01L2941.61 679.441C2941.03 680.696 2940.11 681.755 2938.94 682.484C2937.77 683.214 2936.41 683.581 2935.03 683.54C2933.65 683.499 2932.31 683.051 2931.19 682.255C2930.06 681.458 2929.2 680.345 2928.7 679.057L2918.95 653.701C2918.94 653.673 2918.93 653.645 2918.92 653.617C2918.46 652.362 2918.37 651.001 2918.66 649.695C2918.94 648.39 2919.6 647.194 2920.55 646.249L2920.63 646.161C2921.57 645.263 2922.73 644.64 2923.99 644.362ZM2925.98 649.902C2925.73 649.811 2925.46 649.792 2925.2 649.849C2924.94 649.906 2924.7 650.036 2924.52 650.223C2924.33 650.411 2924.2 650.648 2924.14 650.907C2924.09 651.165 2924.1 651.435 2924.19 651.684L2933.95 677.04C2934.04 677.294 2934.22 677.513 2934.44 677.671C2934.66 677.828 2934.92 677.916 2935.19 677.924C2935.47 677.932 2935.73 677.859 2935.96 677.716C2936.19 677.572 2936.38 677.363 2936.49 677.116L2939.87 669.685C2940.67 667.921 2942.06 666.496 2943.81 665.656L2943.98 665.576L2951.41 662.197C2951.65 662.081 2951.86 661.897 2952 661.667C2952.14 661.437 2952.21 661.171 2952.2 660.901C2952.2 660.631 2952.11 660.369 2951.95 660.148C2951.81 659.941 2951.61 659.777 2951.38 659.674L2951.33 659.654L2925.98 649.902Z" fill="white"/>
<path d="M2967.52 650.094V631.657C2967.52 630.203 2966.34 629.024 2964.88 629.024H2946.44C2944.51 629.024 2942.93 627.451 2942.93 625.512C2942.93 623.572 2944.51 622 2946.44 622H2964.88C2970.22 622 2974.54 626.324 2974.54 631.657V650.094C2974.54 652.034 2972.97 653.606 2971.03 653.606C2969.09 653.606 2967.52 652.034 2967.52 650.094Z" fill="white"/>
<path d="M2967.51 689.883V671.446C2967.51 669.506 2969.09 667.934 2971.03 667.934C2972.97 667.934 2974.54 669.506 2974.54 671.446V689.883C2974.54 695.216 2970.21 699.54 2964.88 699.54C2962.94 699.54 2961.37 697.968 2961.37 696.028C2961.37 694.089 2962.94 692.516 2964.88 692.516C2966.34 692.516 2967.51 691.337 2967.51 689.883Z" fill="white"/>
<path d="M2897 689.883V671.446C2897 669.506 2898.57 667.934 2900.51 667.934C2902.45 667.934 2904.02 669.506 2904.02 671.446V689.883C2904.02 691.337 2905.2 692.516 2906.66 692.516H2925.09C2927.03 692.516 2928.6 694.089 2928.6 696.028C2928.6 697.968 2927.03 699.54 2925.09 699.54H2906.66C2901.32 699.54 2897 695.216 2897 689.883Z" fill="white"/>
<path d="M2897 650.094V631.657C2897 626.324 2901.32 622 2906.66 622C2908.6 622 2910.17 623.572 2910.17 625.512C2910.17 627.451 2908.6 629.024 2906.66 629.024C2905.2 629.024 2904.02 630.203 2904.02 631.657V650.094C2904.02 652.034 2902.45 653.606 2900.51 653.606C2898.57 653.606 2897 652.034 2897 650.094Z" fill="white"/>
<path d="M2923.99 644.362L2923.94 644.118L2923.94 644.118L2923.99 644.362ZM2927.8 644.585L2927.88 644.35L2927.88 644.349L2927.8 644.585ZM2927.91 644.628L2928 644.393L2928 644.392L2927.91 644.628ZM2927.99 644.658L2928.08 644.424L2928.08 644.424L2927.99 644.658ZM2953.35 654.41L2953.44 654.177L2953.44 654.177L2953.35 654.41ZM2953.43 654.442L2953.52 654.21H2953.52L2953.43 654.442ZM2956.49 656.83L2956.69 656.685L2956.69 656.683L2956.49 656.83ZM2956.56 656.934L2956.77 656.795L2956.77 656.789L2956.56 656.934ZM2956.56 656.935L2956.36 657.074L2956.36 657.078L2956.56 656.935ZM2957.81 660.606L2958.06 660.597L2958.06 660.594L2957.81 660.606ZM2957.82 660.734H2958.07L2958.07 660.724L2957.82 660.734ZM2957.82 660.736H2957.57L2957.57 660.743L2957.82 660.736ZM2956.79 664.603L2956.58 664.472L2956.58 664.472L2956.79 664.603ZM2953.81 667.276L2953.92 667.501V667.501L2953.81 667.276ZM2953.74 667.312L2953.84 667.539L2953.84 667.539L2953.74 667.312ZM2946.3 670.691L2946.2 670.464L2946.2 670.464L2946.3 670.691ZM2944.98 672.01L2944.76 671.907V671.907L2944.98 672.01ZM2941.61 679.441L2941.38 679.337V679.337L2941.61 679.441ZM2938.94 682.484L2938.8 682.272V682.272L2938.94 682.484ZM2935.03 683.54L2935.03 683.29H2935.03L2935.03 683.54ZM2931.19 682.255L2931.04 682.459L2931.04 682.459L2931.19 682.255ZM2928.7 679.057L2928.94 678.967L2928.94 678.967L2928.7 679.057ZM2918.95 653.701L2919.18 653.611L2919.18 653.611L2918.95 653.701ZM2918.92 653.617L2918.68 653.703L2918.68 653.703L2918.92 653.617ZM2918.66 649.695L2918.41 649.641V649.641L2918.66 649.695ZM2920.55 646.249L2920.37 646.07L2920.37 646.072L2920.55 646.249ZM2920.63 646.161L2920.46 645.981L2920.46 645.982L2920.63 646.161ZM2925.98 649.902L2926.07 649.669L2926.06 649.667L2925.98 649.902ZM2925.2 649.849L2925.15 649.605L2925.15 649.605L2925.2 649.849ZM2924.52 650.223L2924.34 650.046L2924.34 650.046L2924.52 650.223ZM2924.14 650.907L2923.9 650.853L2923.9 650.853L2924.14 650.907ZM2924.19 651.684L2923.96 651.77L2923.96 651.774L2924.19 651.684ZM2933.95 677.04L2934.18 676.951L2934.18 676.951L2933.95 677.04ZM2934.44 677.671L2934.29 677.874L2934.29 677.874L2934.44 677.671ZM2935.19 677.924L2935.2 677.674H2935.2L2935.19 677.924ZM2935.96 677.716L2935.83 677.503L2935.83 677.503L2935.96 677.716ZM2936.49 677.116L2936.26 677.012L2936.26 677.012L2936.49 677.116ZM2939.87 669.685L2940.1 669.788V669.788L2939.87 669.685ZM2943.81 665.656L2943.7 665.429L2943.7 665.43L2943.81 665.656ZM2943.98 665.576L2943.87 665.349L2943.87 665.35L2943.98 665.576ZM2951.41 662.197L2951.51 662.424L2951.52 662.423L2951.41 662.197ZM2952 661.667L2951.79 661.536L2951.79 661.536L2952 661.667ZM2952.2 660.901L2952.45 660.893L2952.45 660.893L2952.2 660.901ZM2951.95 660.148L2952.16 660.005L2952.16 660.005L2951.95 660.148ZM2951.38 659.674L2951.48 659.446L2951.48 659.444L2951.38 659.674ZM2951.33 659.654L2951.43 659.424L2951.42 659.421L2951.33 659.654ZM2967.52 650.094H2967.27V650.094H2967.52ZM2967.52 631.657H2967.77V631.657L2967.52 631.657ZM2964.88 629.024L2964.88 628.774H2964.88V629.024ZM2946.44 629.024V629.274V629.274V629.024ZM2946.44 622V621.75V621.75V622ZM2964.88 622V621.75V621.75V622ZM2974.54 631.657H2974.79V631.657L2974.54 631.657ZM2974.54 650.094H2974.79V650.094H2974.54ZM2967.51 689.883L2967.76 689.883V689.883H2967.51ZM2967.51 671.446H2967.26V671.446H2967.51ZM2974.54 671.446H2974.79V671.446H2974.54ZM2974.54 689.883H2974.79V689.883H2974.54ZM2964.88 699.54V699.79V699.79V699.54ZM2961.37 696.028H2961.12V696.028H2961.37ZM2964.88 692.516V692.766H2964.88L2964.88 692.516ZM2897 689.883H2896.75V689.883H2897ZM2897 671.446H2896.75V671.446H2897ZM2900.51 667.934V667.684V667.684V667.934ZM2904.02 671.446H2904.27V671.446H2904.02ZM2904.02 689.883H2903.77V689.883L2904.02 689.883ZM2925.09 692.516V692.266V692.266V692.516ZM2928.6 696.028H2928.85V696.028H2928.6ZM2925.09 699.54V699.79V699.79V699.54ZM2897 650.094H2896.75V650.094H2897ZM2897 631.657L2896.75 631.657V631.657H2897ZM2906.66 622L2906.66 621.75H2906.66V622ZM2906.66 629.024V629.274H2906.66L2906.66 629.024ZM2904.02 631.657L2903.77 631.657V631.657H2904.02ZM2904.02 650.094H2904.27V650.094H2904.02ZM2900.51 653.606L2900.51 653.856H2900.51V653.606ZM2923.99 644.362L2924.05 644.606C2925.27 644.338 2926.54 644.413 2927.71 644.822L2927.8 644.585L2927.88 644.349C2926.61 643.91 2925.25 643.829 2923.94 644.118L2923.99 644.362ZM2927.8 644.585L2927.71 644.821L2927.83 644.863L2927.91 644.628L2928 644.392L2927.88 644.35L2927.8 644.585ZM2927.91 644.628L2927.83 644.862L2927.91 644.892L2927.99 644.658L2928.08 644.424L2928 644.394L2927.91 644.628ZM2927.99 644.658L2927.91 644.891L2953.26 654.643L2953.35 654.41L2953.44 654.177L2928.08 644.424L2927.99 644.658ZM2953.35 654.41L2953.26 654.643C2953.29 654.653 2953.31 654.663 2953.34 654.674L2953.43 654.442L2953.52 654.21C2953.5 654.199 2953.47 654.188 2953.44 654.177L2953.35 654.41ZM2953.43 654.442L2953.34 654.674C2954.52 655.149 2955.54 655.948 2956.29 656.976L2956.49 656.83L2956.69 656.683C2955.89 655.579 2954.79 654.72 2953.52 654.21L2953.43 654.442ZM2956.49 656.83L2956.29 656.974L2956.36 657.078L2956.56 656.934L2956.77 656.789L2956.69 656.685L2956.49 656.83ZM2956.56 656.934L2956.36 657.072L2956.36 657.074L2956.56 656.935L2956.77 656.796L2956.77 656.795L2956.56 656.934ZM2956.56 656.935L2956.36 657.078C2957.09 658.122 2957.5 659.349 2957.57 660.618L2957.81 660.606L2958.06 660.594C2958 659.231 2957.55 657.913 2956.77 656.792L2956.56 656.935ZM2957.81 660.606L2957.57 660.616L2957.57 660.744L2957.82 660.734L2958.07 660.724L2958.06 660.597L2957.81 660.606ZM2957.82 660.734H2957.57V660.736H2957.82H2958.07V660.734H2957.82ZM2957.82 660.736L2957.57 660.743C2957.61 662.055 2957.26 663.351 2956.58 664.472L2956.79 664.603L2957 664.733C2957.74 663.529 2958.11 662.137 2958.07 660.728L2957.82 660.736ZM2956.79 664.603L2956.58 664.472C2955.89 665.592 2954.89 666.487 2953.71 667.05L2953.81 667.276L2953.92 667.501C2955.2 666.898 2956.27 665.936 2957 664.733L2956.79 664.603ZM2953.81 667.276L2953.71 667.05C2953.68 667.061 2953.66 667.073 2953.63 667.084L2953.74 667.312L2953.84 667.539C2953.87 667.527 2953.89 667.514 2953.92 667.501L2953.81 667.276ZM2953.74 667.312L2953.63 667.084L2946.2 670.464L2946.3 670.691L2946.41 670.919L2953.84 667.539L2953.74 667.312ZM2946.3 670.691L2946.2 670.464C2945.56 670.754 2945.05 671.267 2944.76 671.907L2944.98 672.01L2945.21 672.114C2945.45 671.584 2945.88 671.16 2946.41 670.919L2946.3 670.691ZM2944.98 672.01L2944.76 671.907L2941.38 679.337L2941.61 679.441L2941.83 679.544L2945.21 672.114L2944.98 672.01ZM2941.61 679.441L2941.38 679.337C2940.83 680.548 2939.93 681.569 2938.8 682.272L2938.94 682.484L2939.07 682.696C2940.28 681.941 2941.24 680.844 2941.83 679.544L2941.61 679.441ZM2938.94 682.484L2938.8 682.272C2937.67 682.976 2936.36 683.33 2935.03 683.29L2935.03 683.54L2935.02 683.79C2936.45 683.833 2937.86 683.452 2939.07 682.696L2938.94 682.484ZM2935.03 683.54L2935.03 683.29C2933.7 683.251 2932.42 682.819 2931.33 682.051L2931.19 682.255L2931.04 682.459C2932.21 683.284 2933.59 683.748 2935.02 683.79L2935.03 683.54ZM2931.19 682.255L2931.33 682.051C2930.25 681.282 2929.41 680.209 2928.94 678.967L2928.7 679.057L2928.47 679.147C2928.98 680.48 2929.88 681.633 2931.04 682.459L2931.19 682.255ZM2928.7 679.057L2928.94 678.967L2919.18 653.611L2918.95 653.701L2918.72 653.791L2928.47 679.147L2928.7 679.057ZM2918.95 653.701L2919.18 653.611C2919.17 653.584 2919.16 653.557 2919.15 653.531L2918.92 653.617L2918.68 653.703C2918.7 653.733 2918.71 653.762 2918.72 653.791L2918.95 653.701ZM2918.92 653.617L2919.15 653.531C2918.71 652.321 2918.62 651.008 2918.9 649.749L2918.66 649.695L2918.41 649.641C2918.11 650.994 2918.21 652.403 2918.68 653.703L2918.92 653.617ZM2918.66 649.695L2918.9 649.749C2919.18 648.49 2919.81 647.337 2920.72 646.426L2920.55 646.249L2920.37 646.072C2919.39 647.051 2918.71 648.289 2918.41 649.641L2918.66 649.695ZM2920.55 646.249L2920.72 646.427L2920.81 646.339L2920.63 646.161L2920.46 645.982L2920.37 646.07L2920.55 646.249ZM2920.63 646.161L2920.81 646.341C2921.71 645.475 2922.83 644.874 2924.05 644.606L2923.99 644.362L2923.94 644.118C2922.63 644.406 2921.43 645.051 2920.46 645.981L2920.63 646.161ZM2925.98 649.902L2926.06 649.667C2925.77 649.559 2925.45 649.538 2925.15 649.605L2925.2 649.849L2925.25 650.094C2925.47 650.047 2925.69 650.062 2925.89 650.137L2925.98 649.902ZM2925.2 649.849L2925.15 649.605C2924.84 649.672 2924.56 649.825 2924.34 650.046L2924.52 650.223L2924.69 650.4C2924.85 650.247 2925.04 650.14 2925.25 650.094L2925.2 649.849ZM2924.52 650.223L2924.34 650.046C2924.12 650.268 2923.97 650.547 2923.9 650.853L2924.14 650.907L2924.39 650.96C2924.43 650.748 2924.54 650.554 2924.69 650.4L2924.52 650.223ZM2924.14 650.907L2923.9 650.853C2923.83 651.158 2923.85 651.476 2923.96 651.77L2924.19 651.684L2924.43 651.598C2924.35 651.394 2924.34 651.173 2924.39 650.96L2924.14 650.907ZM2924.19 651.684L2923.96 651.774L2933.71 677.13L2933.95 677.04L2934.18 676.951L2924.43 651.594L2924.19 651.684ZM2933.95 677.04L2933.71 677.13C2933.83 677.43 2934.03 677.689 2934.29 677.874L2934.44 677.671L2934.58 677.467C2934.4 677.338 2934.26 677.158 2934.18 676.951L2933.95 677.04ZM2934.44 677.671L2934.29 677.874C2934.55 678.06 2934.87 678.164 2935.19 678.174L2935.19 677.924L2935.2 677.674C2934.98 677.667 2934.76 677.595 2934.58 677.467L2934.44 677.671ZM2935.19 677.924L2935.19 678.174C2935.51 678.183 2935.82 678.098 2936.1 677.928L2935.96 677.716L2935.83 677.503C2935.64 677.621 2935.42 677.681 2935.2 677.674L2935.19 677.924ZM2935.96 677.716L2936.1 677.928C2936.37 677.758 2936.58 677.511 2936.72 677.219L2936.49 677.116L2936.26 677.012C2936.17 677.215 2936.02 677.386 2935.83 677.503L2935.96 677.716ZM2939.87 669.685L2940.1 669.788C2940.87 668.077 2942.23 666.695 2943.92 665.881L2943.81 665.656L2943.7 665.43C2941.9 666.296 2940.47 667.764 2939.64 669.582L2939.87 669.685ZM2943.81 665.656L2943.91 665.882L2944.08 665.803L2943.98 665.576L2943.87 665.35L2943.7 665.429L2943.81 665.656ZM2943.98 665.576L2944.08 665.804L2951.51 662.424L2951.41 662.197L2951.31 661.969L2943.87 665.349L2943.98 665.576ZM2951.41 662.197L2951.52 662.423C2951.8 662.286 2952.05 662.069 2952.21 661.798L2952 661.667L2951.79 661.536C2951.67 661.725 2951.5 661.876 2951.3 661.971L2951.41 662.197ZM2952 661.667L2952.21 661.798C2952.38 661.526 2952.46 661.212 2952.45 660.893L2952.2 660.901L2951.95 660.908C2951.96 661.129 2951.9 661.348 2951.79 661.536L2952 661.667ZM2952.2 660.901L2952.45 660.893C2952.44 660.575 2952.34 660.266 2952.16 660.005L2951.95 660.148L2951.75 660.291C2951.88 660.473 2951.95 660.687 2951.95 660.908L2952.2 660.901ZM2951.95 660.148L2952.16 660.005C2951.99 659.76 2951.75 659.567 2951.48 659.446L2951.38 659.674L2951.28 659.902C2951.47 659.987 2951.63 660.121 2951.75 660.291L2951.95 660.148ZM2951.38 659.674L2951.48 659.444L2951.43 659.424L2951.33 659.654L2951.24 659.885L2951.28 659.904L2951.38 659.674ZM2951.33 659.654L2951.42 659.421L2926.07 649.669L2925.98 649.902L2925.89 650.135L2951.24 659.888L2951.33 659.654ZM2936.49 677.116L2936.72 677.219L2940.1 669.788L2939.87 669.685L2939.64 669.582L2936.26 677.012L2936.49 677.116ZM2967.52 650.094H2967.77V631.657H2967.52H2967.27V650.094H2967.52ZM2967.52 631.657L2967.77 631.657C2967.77 630.065 2966.47 628.774 2964.88 628.774L2964.88 629.024L2964.88 629.274C2966.2 629.274 2967.27 630.341 2967.27 631.657L2967.52 631.657ZM2964.88 629.024V628.774H2946.44V629.024V629.274H2964.88V629.024ZM2946.44 629.024V628.774C2944.64 628.774 2943.18 627.313 2943.18 625.512H2942.93H2942.68C2942.68 627.589 2944.37 629.274 2946.44 629.274V629.024ZM2942.93 625.512H2943.18C2943.18 623.71 2944.64 622.25 2946.44 622.25V622V621.75C2944.37 621.75 2942.68 623.434 2942.68 625.512H2942.93ZM2946.44 622V622.25H2964.88V622V621.75H2946.44V622ZM2964.88 622V622.25C2970.08 622.25 2974.29 626.462 2974.29 631.657L2974.54 631.657L2974.79 631.657C2974.79 626.186 2970.35 621.75 2964.88 621.75V622ZM2974.54 631.657H2974.29V650.094H2974.54H2974.79V631.657H2974.54ZM2974.54 650.094H2974.29C2974.29 651.896 2972.83 653.356 2971.03 653.356V653.606V653.856C2973.1 653.856 2974.79 652.172 2974.79 650.094H2974.54ZM2971.03 653.606V653.356C2969.23 653.356 2967.77 651.896 2967.77 650.094H2967.52H2967.27C2967.27 652.172 2968.95 653.856 2971.03 653.856V653.606ZM2967.51 689.883H2967.76V671.446H2967.51H2967.26V689.883H2967.51ZM2967.51 671.446H2967.76C2967.76 669.644 2969.23 668.184 2971.03 668.184V667.934V667.684C2968.95 667.684 2967.26 669.368 2967.26 671.446H2967.51ZM2971.03 667.934V668.184C2972.83 668.184 2974.29 669.644 2974.29 671.446H2974.54H2974.79C2974.79 669.368 2973.1 667.684 2971.03 667.684V667.934ZM2974.54 671.446H2974.29V689.883H2974.54H2974.79V671.446H2974.54ZM2974.54 689.883H2974.29C2974.29 695.078 2970.08 699.29 2964.88 699.29V699.54V699.79C2970.35 699.79 2974.79 695.354 2974.79 689.883H2974.54ZM2964.88 699.54V699.29C2963.08 699.29 2961.62 697.829 2961.62 696.028H2961.37H2961.12C2961.12 698.106 2962.8 699.79 2964.88 699.79V699.54ZM2961.37 696.028H2961.62C2961.62 694.227 2963.08 692.766 2964.88 692.766V692.516V692.266C2962.8 692.266 2961.12 693.95 2961.12 696.028H2961.37ZM2964.88 692.516L2964.88 692.766C2966.47 692.766 2967.76 691.475 2967.76 689.883L2967.51 689.883L2967.26 689.883C2967.26 691.199 2966.2 692.266 2964.88 692.266L2964.88 692.516ZM2897 689.883H2897.25V671.446H2897H2896.75V689.883H2897ZM2897 671.446H2897.25C2897.25 669.644 2898.71 668.184 2900.51 668.184V667.934V667.684C2898.43 667.684 2896.75 669.368 2896.75 671.446H2897ZM2900.51 667.934V668.184C2902.31 668.184 2903.77 669.644 2903.77 671.446H2904.02H2904.27C2904.27 669.368 2902.59 667.684 2900.51 667.684V667.934ZM2904.02 671.446H2903.77V689.883H2904.02H2904.27V671.446H2904.02ZM2904.02 689.883L2903.77 689.883C2903.77 691.475 2905.06 692.766 2906.66 692.766V692.516V692.266C2905.34 692.266 2904.27 691.199 2904.27 689.883L2904.02 689.883ZM2906.66 692.516V692.766H2925.09V692.516V692.266H2906.66V692.516ZM2925.09 692.516V692.766C2926.89 692.766 2928.35 694.227 2928.35 696.028H2928.6H2928.85C2928.85 693.95 2927.17 692.266 2925.09 692.266V692.516ZM2928.6 696.028H2928.35C2928.35 697.829 2926.89 699.29 2925.09 699.29V699.54V699.79C2927.17 699.79 2928.85 698.106 2928.85 696.028H2928.6ZM2925.09 699.54V699.29H2906.66V699.54V699.79H2925.09V699.54ZM2906.66 699.54V699.29C2901.46 699.29 2897.25 695.078 2897.25 689.883H2897H2896.75C2896.75 695.354 2901.18 699.79 2906.66 699.79V699.54ZM2897 650.094H2897.25V631.657H2897H2896.75V650.094H2897ZM2897 631.657L2897.25 631.657C2897.25 626.462 2901.46 622.25 2906.66 622.25V622V621.75C2901.18 621.75 2896.75 626.186 2896.75 631.657L2897 631.657ZM2906.66 622L2906.66 622.25C2908.46 622.25 2909.92 623.71 2909.92 625.512H2910.17H2910.42C2910.42 623.434 2908.73 621.75 2906.66 621.75L2906.66 622ZM2910.17 625.512H2909.92C2909.92 627.313 2908.46 628.774 2906.66 628.774L2906.66 629.024L2906.66 629.274C2908.73 629.274 2910.42 627.589 2910.42 625.512H2910.17ZM2906.66 629.024V628.774C2905.06 628.774 2903.77 630.065 2903.77 631.657L2904.02 631.657L2904.27 631.657C2904.27 630.341 2905.34 629.274 2906.66 629.274V629.024ZM2904.02 631.657H2903.77V650.094H2904.02H2904.27V631.657H2904.02ZM2904.02 650.094H2903.77C2903.77 651.896 2902.31 653.356 2900.51 653.356V653.606V653.856C2902.59 653.856 2904.27 652.172 2904.27 650.094H2904.02ZM2900.51 653.606L2900.51 653.356C2898.71 653.356 2897.25 651.896 2897.25 650.094H2897H2896.75C2896.75 652.172 2898.43 653.856 2900.51 653.856L2900.51 653.606Z" fill="black"/>
</g>
</g>
<g id="Regular-S">
<g id="Vector_14">
<path d="M1439.68 645.786C1440.74 645.552 1441.85 645.618 1442.87 645.974L1442.97 646.009L1443.04 646.035L1464.34 654.228C1464.36 654.236 1464.39 654.245 1464.41 654.254C1465.44 654.668 1466.33 655.364 1466.98 656.26L1467.04 656.347L1467.04 656.348C1467.67 657.258 1468.04 658.327 1468.09 659.433L1468.09 659.54V659.541C1468.13 660.684 1467.83 661.813 1467.23 662.79C1466.63 663.766 1465.76 664.546 1464.73 665.036C1464.71 665.046 1464.69 665.056 1464.66 665.066L1458.42 667.905C1457.93 668.128 1457.53 668.522 1457.31 669.013L1454.47 675.255C1453.99 676.31 1453.21 677.199 1452.23 677.812C1451.25 678.425 1450.1 678.734 1448.95 678.699C1447.79 678.665 1446.67 678.288 1445.72 677.62C1444.78 676.95 1444.05 676.015 1443.63 674.933L1435.44 653.632C1435.43 653.608 1435.42 653.585 1435.41 653.561C1435.03 652.507 1434.95 651.364 1435.19 650.267C1435.44 649.17 1435.99 648.165 1436.78 647.371L1436.86 647.298C1437.64 646.543 1438.62 646.02 1439.68 645.786ZM1441.35 650.44C1441.14 650.364 1440.91 650.348 1440.69 650.396C1440.47 650.444 1440.28 650.553 1440.12 650.71C1439.96 650.868 1439.85 651.067 1439.8 651.284C1439.76 651.502 1439.77 651.728 1439.85 651.937L1448.04 673.239C1448.12 673.452 1448.26 673.636 1448.45 673.768C1448.64 673.9 1448.86 673.974 1449.09 673.981C1449.32 673.988 1449.54 673.927 1449.73 673.806C1449.93 673.685 1450.08 673.51 1450.18 673.302L1453.01 667.06C1453.69 665.578 1454.86 664.38 1456.32 663.675L1456.47 663.608L1462.71 660.769C1462.91 660.672 1463.09 660.517 1463.21 660.324C1463.32 660.131 1463.38 659.907 1463.38 659.68C1463.37 659.454 1463.3 659.234 1463.17 659.048C1463.05 658.874 1462.88 658.736 1462.69 658.65L1462.65 658.633L1441.35 650.44Z" fill="white"/>
<path d="M1476.24 650.602V635.113C1476.24 633.892 1475.25 632.901 1474.03 632.901H1458.54C1456.91 632.901 1455.59 631.58 1455.59 629.951C1455.59 628.321 1456.91 627 1458.54 627H1474.03C1478.51 627.001 1482.14 630.633 1482.14 635.113V650.602C1482.14 652.231 1480.82 653.552 1479.19 653.552C1477.56 653.552 1476.24 652.231 1476.24 650.602Z" fill="white"/>
<path d="M1476.24 684.027V668.539C1476.24 666.91 1477.56 665.589 1479.19 665.589C1480.82 665.589 1482.14 666.91 1482.14 668.539V684.027C1482.14 688.508 1478.51 692.14 1474.03 692.14C1472.4 692.14 1471.08 690.82 1471.08 689.19C1471.08 687.561 1472.4 686.24 1474.03 686.24C1475.25 686.24 1476.24 685.249 1476.24 684.027Z" fill="white"/>
<path d="M1417 684.027V668.539C1417 666.91 1418.32 665.589 1419.95 665.589C1421.58 665.589 1422.9 666.91 1422.9 668.539V684.027C1422.9 685.249 1423.89 686.24 1425.11 686.24H1440.6C1442.23 686.24 1443.55 687.561 1443.55 689.19C1443.55 690.82 1442.23 692.14 1440.6 692.14H1425.11C1420.63 692.14 1417 688.508 1417 684.027Z" fill="white"/>
<path d="M1417 650.602V635.113C1417 630.633 1420.63 627 1425.11 627C1426.74 627.001 1428.06 628.321 1428.06 629.951C1428.06 631.58 1426.74 632.901 1425.11 632.901C1423.89 632.901 1422.9 633.892 1422.9 635.113V650.602C1422.9 652.231 1421.58 653.552 1419.95 653.552C1418.32 653.552 1417 652.231 1417 650.602Z" fill="white"/>
<path d="M1439.68 645.786L1439.62 645.542L1439.62 645.542L1439.68 645.786ZM1442.87 645.974L1442.96 645.739L1442.96 645.738L1442.87 645.974ZM1442.97 646.009L1443.06 645.775L1443.06 645.774L1442.97 646.009ZM1443.04 646.035L1443.13 645.801L1443.13 645.801L1443.04 646.035ZM1464.34 654.228L1464.43 653.994L1464.43 653.994L1464.34 654.228ZM1464.41 654.254L1464.5 654.022L1464.5 654.022L1464.41 654.254ZM1466.98 656.26L1467.18 656.115L1467.18 656.113L1466.98 656.26ZM1467.04 656.347L1467.25 656.209L1467.24 656.203L1467.04 656.347ZM1467.04 656.348L1466.83 656.487L1466.83 656.491L1467.04 656.348ZM1468.09 659.433L1468.34 659.423L1468.34 659.421L1468.09 659.433ZM1468.09 659.54H1468.35L1468.34 659.53L1468.09 659.54ZM1468.09 659.541H1467.84L1467.84 659.549L1468.09 659.541ZM1467.23 662.79L1467.02 662.66L1467.02 662.66L1467.23 662.79ZM1464.73 665.036L1464.84 665.262V665.262L1464.73 665.036ZM1464.66 665.066L1464.77 665.294L1464.77 665.294L1464.66 665.066ZM1458.42 667.905L1458.32 667.677L1458.32 667.677L1458.42 667.905ZM1457.31 669.013L1457.08 668.91V668.91L1457.31 669.013ZM1454.47 675.255L1454.25 675.152V675.152L1454.47 675.255ZM1452.23 677.812L1452.1 677.6V677.6L1452.23 677.812ZM1448.95 678.699L1448.95 678.449H1448.95L1448.95 678.699ZM1445.72 677.62L1445.58 677.824L1445.58 677.824L1445.72 677.62ZM1443.63 674.933L1443.87 674.843L1443.87 674.843L1443.63 674.933ZM1435.44 653.632L1435.67 653.542L1435.67 653.542L1435.44 653.632ZM1435.41 653.561L1435.18 653.647L1435.18 653.647L1435.41 653.561ZM1435.19 650.267L1434.95 650.213V650.213L1435.19 650.267ZM1436.78 647.371L1436.61 647.193L1436.6 647.195L1436.78 647.371ZM1436.86 647.298L1436.68 647.118L1436.68 647.119L1436.86 647.298ZM1441.35 650.44L1441.43 650.207L1441.43 650.206L1441.35 650.44ZM1440.69 650.396L1440.64 650.152L1440.64 650.152L1440.69 650.396ZM1440.12 650.71L1439.94 650.533L1439.94 650.533L1440.12 650.71ZM1439.8 651.284L1439.56 651.23L1439.56 651.23L1439.8 651.284ZM1439.85 651.937L1439.61 652.023L1439.61 652.027L1439.85 651.937ZM1448.04 673.239L1448.27 673.149L1448.27 673.149L1448.04 673.239ZM1448.45 673.768L1448.31 673.972L1448.31 673.972L1448.45 673.768ZM1449.09 673.981L1449.09 673.731H1449.09L1449.09 673.981ZM1449.73 673.806L1449.6 673.594L1449.6 673.594L1449.73 673.806ZM1450.18 673.302L1449.95 673.199L1449.95 673.199L1450.18 673.302ZM1453.01 667.06L1453.24 667.163V667.163L1453.01 667.06ZM1456.32 663.675L1456.22 663.448L1456.21 663.449L1456.32 663.675ZM1456.47 663.608L1456.36 663.38L1456.36 663.382L1456.47 663.608ZM1462.71 660.769L1462.81 660.997L1462.82 660.995L1462.71 660.769ZM1463.21 660.324L1462.99 660.193L1462.99 660.193L1463.21 660.324ZM1463.38 659.68L1463.63 659.673L1463.63 659.673L1463.38 659.68ZM1463.17 659.048L1463.37 658.905L1463.37 658.905L1463.17 659.048ZM1462.69 658.65L1462.79 658.421L1462.78 658.42L1462.69 658.65ZM1462.65 658.633L1462.74 658.403L1462.74 658.4L1462.65 658.633ZM1476.24 650.602H1475.99V650.602H1476.24ZM1476.24 635.113H1476.49V635.113L1476.24 635.113ZM1474.03 632.901L1474.03 632.651H1474.03V632.901ZM1458.54 632.901V633.151V633.151V632.901ZM1458.54 627V626.75V626.75V627ZM1474.03 627L1474.03 626.75H1474.03V627ZM1482.14 635.113H1482.39V635.113L1482.14 635.113ZM1482.14 650.602H1482.39V650.602H1482.14ZM1476.24 684.027L1476.49 684.027V684.027H1476.24ZM1476.24 668.539H1475.99V668.539H1476.24ZM1482.14 668.539H1482.39V668.539H1482.14ZM1482.14 684.027L1482.39 684.027V684.027H1482.14ZM1474.03 692.14V692.39H1474.03L1474.03 692.14ZM1471.08 689.19H1470.83V689.19H1471.08ZM1474.03 686.24V686.49H1474.03L1474.03 686.24ZM1417 684.027H1416.75V684.027L1417 684.027ZM1417 668.539H1416.75V668.539H1417ZM1419.95 665.589V665.339V665.339V665.589ZM1422.9 668.539H1423.15V668.539H1422.9ZM1422.9 684.027H1422.65V684.027L1422.9 684.027ZM1440.6 686.24V685.99V685.99V686.24ZM1443.55 689.19H1443.8V689.19H1443.55ZM1440.6 692.14V692.39V692.39V692.14ZM1417 650.602H1416.75V650.602H1417ZM1417 635.113L1416.75 635.113V635.113H1417ZM1425.11 627L1425.11 626.75H1425.11V627ZM1425.11 632.901V633.151H1425.11L1425.11 632.901ZM1422.9 635.113L1422.65 635.113V635.113H1422.9ZM1422.9 650.602H1423.15V650.602H1422.9ZM1419.95 653.552L1419.95 653.802H1419.95V653.552ZM1439.68 645.786L1439.73 646.03C1440.75 645.806 1441.81 645.869 1442.79 646.21L1442.87 645.974L1442.96 645.738C1441.88 645.366 1440.73 645.298 1439.62 645.542L1439.68 645.786ZM1442.87 645.974L1442.79 646.21L1442.89 646.245L1442.97 646.009L1443.06 645.774L1442.96 645.739L1442.87 645.974ZM1442.97 646.009L1442.88 646.243L1442.95 646.269L1443.04 646.035L1443.13 645.801L1443.06 645.775L1442.97 646.009ZM1443.04 646.035L1442.95 646.268L1464.25 654.461L1464.34 654.228L1464.43 653.994L1443.13 645.801L1443.04 646.035ZM1464.34 654.228L1464.25 654.461C1464.27 654.469 1464.29 654.477 1464.31 654.486L1464.41 654.254L1464.5 654.022C1464.48 654.013 1464.45 654.003 1464.43 653.994L1464.34 654.228ZM1464.41 654.254L1464.31 654.486C1465.3 654.883 1466.15 655.549 1466.77 656.407L1466.98 656.26L1467.18 656.113C1466.5 655.18 1465.57 654.454 1464.5 654.022L1464.41 654.254ZM1466.98 656.26L1466.77 656.405L1466.84 656.492L1467.04 656.347L1467.24 656.203L1467.18 656.115L1466.98 656.26ZM1467.04 656.347L1466.83 656.486L1466.83 656.487L1467.04 656.348L1467.25 656.21L1467.25 656.209L1467.04 656.347ZM1467.04 656.348L1466.83 656.491C1467.44 657.362 1467.79 658.386 1467.84 659.445L1468.09 659.433L1468.34 659.421C1468.29 658.268 1467.91 657.153 1467.24 656.205L1467.04 656.348ZM1468.09 659.433L1467.84 659.443L1467.85 659.55L1468.09 659.54L1468.34 659.53L1468.34 659.423L1468.09 659.433ZM1468.09 659.54H1467.84V659.541H1468.09H1468.34V659.54H1468.09ZM1468.09 659.541L1467.84 659.549C1467.88 660.643 1467.59 661.724 1467.02 662.66L1467.23 662.79L1467.44 662.921C1468.07 661.902 1468.38 660.725 1468.34 659.534L1468.09 659.541ZM1467.23 662.79L1467.02 662.66C1466.44 663.593 1465.61 664.341 1464.62 664.81L1464.73 665.036L1464.84 665.262C1465.91 664.751 1466.82 663.938 1467.44 662.921L1467.23 662.79ZM1464.73 665.036L1464.62 664.81C1464.6 664.819 1464.58 664.829 1464.56 664.838L1464.66 665.066L1464.77 665.294C1464.79 665.283 1464.81 665.272 1464.84 665.262L1464.73 665.036ZM1464.66 665.066L1464.56 664.838L1458.32 667.677L1458.42 667.905L1458.52 668.133L1464.77 665.294L1464.66 665.066ZM1458.42 667.905L1458.32 667.677C1457.77 667.926 1457.33 668.363 1457.08 668.91L1457.31 669.013L1457.54 669.116C1457.74 668.68 1458.09 668.331 1458.52 668.133L1458.42 667.905ZM1457.31 669.013L1457.08 668.91L1454.25 675.152L1454.47 675.255L1454.7 675.359L1457.54 669.116L1457.31 669.013ZM1454.47 675.255L1454.25 675.152C1453.79 676.162 1453.04 677.013 1452.1 677.6L1452.23 677.812L1452.36 678.024C1453.39 677.386 1454.2 676.458 1454.7 675.359L1454.47 675.255ZM1452.23 677.812L1452.1 677.6C1451.16 678.187 1450.06 678.482 1448.95 678.449L1448.95 678.699L1448.94 678.949C1450.15 678.985 1451.34 678.663 1452.36 678.024L1452.23 677.812ZM1448.95 678.699L1448.95 678.449C1447.84 678.416 1446.77 678.056 1445.87 677.416L1445.72 677.62L1445.58 677.824C1446.56 678.521 1447.73 678.913 1448.94 678.949L1448.95 678.699ZM1445.72 677.62L1445.87 677.416C1444.96 676.774 1444.27 675.879 1443.87 674.843L1443.63 674.933L1443.4 675.023C1443.83 676.151 1444.59 677.125 1445.58 677.824L1445.72 677.62ZM1443.63 674.933L1443.87 674.843L1435.67 653.542L1435.44 653.632L1435.21 653.722L1443.4 675.023L1443.63 674.933ZM1435.44 653.632L1435.67 653.542C1435.67 653.519 1435.66 653.497 1435.65 653.475L1435.41 653.561L1435.18 653.647C1435.19 653.673 1435.2 653.697 1435.21 653.722L1435.44 653.632ZM1435.41 653.561L1435.65 653.475C1435.28 652.466 1435.21 651.371 1435.44 650.321L1435.19 650.267L1434.95 650.213C1434.7 651.356 1434.78 652.548 1435.18 653.647L1435.41 653.561ZM1435.19 650.267L1435.44 650.321C1435.67 649.27 1436.2 648.308 1436.96 647.548L1436.78 647.371L1436.6 647.195C1435.78 648.022 1435.2 649.07 1434.95 650.213L1435.19 650.267ZM1436.78 647.371L1436.96 647.55L1437.03 647.476L1436.86 647.298L1436.68 647.119L1436.61 647.193L1436.78 647.371ZM1436.86 647.298L1437.03 647.478C1437.78 646.755 1438.71 646.254 1439.73 646.03L1439.68 645.786L1439.62 645.542C1438.52 645.786 1437.5 646.331 1436.68 647.118L1436.86 647.298ZM1441.35 650.44L1441.43 650.206C1441.18 650.112 1440.9 650.094 1440.64 650.152L1440.69 650.396L1440.75 650.64C1440.92 650.603 1441.09 650.615 1441.26 650.675L1441.35 650.44ZM1440.69 650.396L1440.64 650.152C1440.37 650.21 1440.13 650.342 1439.94 650.533L1440.12 650.71L1440.29 650.887C1440.42 650.764 1440.57 650.678 1440.75 650.64L1440.69 650.396ZM1440.12 650.71L1439.94 650.533C1439.75 650.725 1439.62 650.967 1439.56 651.23L1439.8 651.284L1440.05 651.338C1440.09 651.167 1440.17 651.011 1440.29 650.887L1440.12 650.71ZM1439.8 651.284L1439.56 651.23C1439.5 651.494 1439.52 651.77 1439.61 652.023L1439.85 651.937L1440.08 651.851C1440.02 651.687 1440.01 651.509 1440.05 651.338L1439.8 651.284ZM1439.85 651.937L1439.61 652.027L1447.81 673.329L1448.04 673.239L1448.27 673.149L1440.08 651.848L1439.85 651.937ZM1448.04 673.239L1447.81 673.329C1447.91 673.588 1448.08 673.812 1448.31 673.972L1448.45 673.768L1448.6 673.564C1448.45 673.461 1448.34 673.316 1448.27 673.149L1448.04 673.239ZM1448.45 673.768L1448.31 673.972C1448.53 674.133 1448.8 674.223 1449.08 674.231L1449.09 673.981L1449.09 673.731C1448.92 673.726 1448.74 673.668 1448.6 673.564L1448.45 673.768ZM1449.09 673.981L1449.08 674.231C1449.36 674.239 1449.63 674.165 1449.87 674.018L1449.73 673.806L1449.6 673.594C1449.45 673.689 1449.27 673.736 1449.09 673.731L1449.09 673.981ZM1449.73 673.806L1449.87 674.018C1450.1 673.871 1450.29 673.658 1450.4 673.406L1450.18 673.302L1449.95 673.199C1449.87 673.362 1449.75 673.499 1449.6 673.594L1449.73 673.806ZM1453.01 667.06L1453.24 667.163C1453.89 665.734 1455.02 664.58 1456.43 663.9L1456.32 663.675L1456.21 663.449C1454.7 664.181 1453.48 665.421 1452.79 666.956L1453.01 667.06ZM1456.32 663.675L1456.43 663.901L1456.57 663.834L1456.47 663.608L1456.36 663.382L1456.22 663.448L1456.32 663.675ZM1456.47 663.608L1456.57 663.836L1462.81 660.996L1462.71 660.769L1462.61 660.541L1456.36 663.38L1456.47 663.608ZM1462.71 660.769L1462.82 660.995C1463.07 660.877 1463.27 660.689 1463.42 660.455L1463.21 660.324L1462.99 660.193C1462.9 660.345 1462.76 660.467 1462.6 660.543L1462.71 660.769ZM1463.21 660.324L1463.42 660.455C1463.56 660.22 1463.63 659.948 1463.63 659.673L1463.38 659.68L1463.13 659.688C1463.13 659.866 1463.09 660.042 1462.99 660.193L1463.21 660.324ZM1463.38 659.68L1463.63 659.673C1463.62 659.398 1463.53 659.131 1463.37 658.905L1463.17 659.048L1462.96 659.191C1463.06 659.337 1463.12 659.51 1463.13 659.688L1463.38 659.68ZM1463.17 659.048L1463.37 658.905C1463.22 658.693 1463.02 658.526 1462.79 658.421L1462.69 658.65L1462.58 658.878C1462.74 658.946 1462.87 659.054 1462.96 659.191L1463.17 659.048ZM1462.69 658.65L1462.78 658.42L1462.74 658.403L1462.65 658.633L1462.55 658.863L1462.59 658.88L1462.69 658.65ZM1462.65 658.633L1462.74 658.4L1441.43 650.207L1441.35 650.44L1441.26 650.674L1462.56 658.867L1462.65 658.633ZM1450.18 673.302L1450.4 673.406L1453.24 667.163L1453.01 667.06L1452.79 666.956L1449.95 673.199L1450.18 673.302ZM1476.24 650.602H1476.49V635.113H1476.24H1475.99V650.602H1476.24ZM1476.24 635.113L1476.49 635.113C1476.49 633.753 1475.39 632.651 1474.03 632.651L1474.03 632.901L1474.03 633.151C1475.11 633.151 1475.99 634.03 1475.99 635.113L1476.24 635.113ZM1474.03 632.901V632.651H1458.54V632.901V633.151H1474.03V632.901ZM1458.54 632.901V632.651C1457.05 632.651 1455.84 631.442 1455.84 629.951H1455.59H1455.34C1455.34 631.718 1456.77 633.151 1458.54 633.151V632.901ZM1455.59 629.951H1455.84C1455.84 628.459 1457.05 627.25 1458.54 627.25V627V626.75C1456.77 626.75 1455.34 628.183 1455.34 629.951H1455.59ZM1458.54 627V627.25H1474.03V627V626.75H1458.54V627ZM1474.03 627L1474.03 627.25C1478.37 627.251 1481.89 630.771 1481.89 635.113L1482.14 635.113L1482.39 635.113C1482.39 630.495 1478.65 626.751 1474.03 626.75L1474.03 627ZM1482.14 635.113H1481.89V650.602H1482.14H1482.39V635.113H1482.14ZM1482.14 650.602H1481.89C1481.89 652.093 1480.68 653.302 1479.19 653.302V653.552V653.802C1480.96 653.802 1482.39 652.369 1482.39 650.602H1482.14ZM1479.19 653.552V653.302C1477.7 653.302 1476.49 652.093 1476.49 650.602H1476.24H1475.99C1475.99 652.369 1477.42 653.802 1479.19 653.802V653.552ZM1476.24 684.027H1476.49V668.539H1476.24H1475.99V684.027H1476.24ZM1476.24 668.539H1476.49C1476.49 667.048 1477.7 665.839 1479.19 665.839V665.589V665.339C1477.42 665.339 1475.99 666.772 1475.99 668.539H1476.24ZM1479.19 665.589V665.839C1480.68 665.839 1481.89 667.048 1481.89 668.539H1482.14H1482.39C1482.39 666.772 1480.96 665.339 1479.19 665.339V665.589ZM1482.14 668.539H1481.89V684.027H1482.14H1482.39V668.539H1482.14ZM1482.14 684.027L1481.89 684.027C1481.89 688.37 1478.37 691.89 1474.03 691.89L1474.03 692.14L1474.03 692.39C1478.65 692.39 1482.39 688.646 1482.39 684.027L1482.14 684.027ZM1474.03 692.14V691.89C1472.54 691.89 1471.33 690.682 1471.33 689.19H1471.08H1470.83C1470.83 690.958 1472.26 692.39 1474.03 692.39V692.14ZM1471.08 689.19H1471.33C1471.33 687.699 1472.54 686.49 1474.03 686.49V686.24V685.99C1472.26 685.99 1470.83 687.423 1470.83 689.19H1471.08ZM1474.03 686.24L1474.03 686.49C1475.39 686.49 1476.49 685.388 1476.49 684.027L1476.24 684.027L1475.99 684.027C1475.99 685.111 1475.11 685.99 1474.03 685.99L1474.03 686.24ZM1417 684.027H1417.25V668.539H1417H1416.75V684.027H1417ZM1417 668.539H1417.25C1417.25 667.048 1418.46 665.839 1419.95 665.839V665.589V665.339C1418.18 665.339 1416.75 666.772 1416.75 668.539H1417ZM1419.95 665.589V665.839C1421.44 665.839 1422.65 667.048 1422.65 668.539H1422.9H1423.15C1423.15 666.772 1421.72 665.339 1419.95 665.339V665.589ZM1422.9 668.539H1422.65V684.027H1422.9H1423.15V668.539H1422.9ZM1422.9 684.027L1422.65 684.027C1422.65 685.388 1423.75 686.49 1425.11 686.49V686.24V685.99C1424.03 685.99 1423.15 685.111 1423.15 684.027L1422.9 684.027ZM1425.11 686.24V686.49H1440.6V686.24V685.99H1425.11V686.24ZM1440.6 686.24V686.49C1442.09 686.49 1443.3 687.699 1443.3 689.19H1443.55H1443.8C1443.8 687.423 1442.37 685.99 1440.6 685.99V686.24ZM1443.55 689.19H1443.3C1443.3 690.681 1442.09 691.89 1440.6 691.89V692.14V692.39C1442.37 692.39 1443.8 690.958 1443.8 689.19H1443.55ZM1440.6 692.14V691.89H1425.11V692.14V692.39H1440.6V692.14ZM1425.11 692.14V691.89C1420.77 691.89 1417.25 688.37 1417.25 684.027L1417 684.027L1416.75 684.027C1416.75 688.646 1420.49 692.39 1425.11 692.39V692.14ZM1417 650.602H1417.25V635.113H1417H1416.75V650.602H1417ZM1417 635.113L1417.25 635.113C1417.25 630.771 1420.77 627.25 1425.11 627.25V627V626.75C1420.49 626.75 1416.75 630.495 1416.75 635.113L1417 635.113ZM1425.11 627L1425.11 627.25C1426.6 627.251 1427.81 628.459 1427.81 629.951H1428.06H1428.31C1428.31 628.183 1426.88 626.751 1425.11 626.75L1425.11 627ZM1428.06 629.951H1427.81C1427.81 631.442 1426.6 632.651 1425.11 632.651L1425.11 632.901L1425.11 633.151C1426.88 633.151 1428.31 631.718 1428.31 629.951H1428.06ZM1425.11 632.901V632.651C1423.75 632.651 1422.65 633.753 1422.65 635.113L1422.9 635.113L1423.15 635.113C1423.15 634.03 1424.03 633.151 1425.11 633.151V632.901ZM1422.9 635.113H1422.65V650.602H1422.9H1423.15V635.113H1422.9ZM1422.9 650.602H1422.65C1422.65 652.093 1421.44 653.302 1419.95 653.302V653.552V653.802C1421.72 653.802 1423.15 652.369 1423.15 650.602H1422.9ZM1419.95 653.552L1419.95 653.302C1418.46 653.302 1417.25 652.093 1417.25 650.602H1417H1416.75C1416.75 652.369 1418.18 653.802 1419.95 653.802L1419.95 653.552Z" fill="black"/>
</g>
</g>
<g id="Ultralight-S">
<g id="Vector_15">
<path d="M549.968 648.37C550.951 648.153 551.973 648.214 552.923 648.543L553.014 648.576L553.076 648.599L572.772 656.175C572.793 656.183 572.814 656.191 572.834 656.199C573.786 656.582 574.609 657.226 575.21 658.054L575.267 658.135L575.268 658.136C575.854 658.977 576.19 659.965 576.239 660.988L576.243 661.087V661.088C576.274 662.145 575.997 663.189 575.444 664.092C574.891 664.994 574.088 665.715 573.131 666.168C573.111 666.178 573.091 666.187 573.07 666.196L567.296 668.821C566.842 669.028 566.478 669.392 566.272 669.846L563.648 675.618C563.205 676.592 562.484 677.415 561.575 677.982C560.666 678.548 559.609 678.834 558.538 678.802C557.466 678.77 556.43 678.422 555.557 677.804C554.683 677.184 554.011 676.32 553.626 675.319L546.051 655.624C546.043 655.602 546.035 655.581 546.027 655.559C545.669 654.584 545.598 653.527 545.822 652.512C546.046 651.498 546.555 650.569 547.29 649.835L547.36 649.767C548.083 649.07 548.986 648.586 549.968 648.37ZM551.51 652.673C551.317 652.602 551.107 652.588 550.906 652.632C550.705 652.676 550.521 652.777 550.375 652.923C550.229 653.068 550.128 653.252 550.084 653.453C550.04 653.654 550.054 653.864 550.125 654.057L557.7 673.753C557.776 673.95 557.908 674.12 558.08 674.242C558.252 674.364 558.457 674.433 558.668 674.439C558.879 674.445 559.087 674.389 559.266 674.277C559.446 674.166 559.588 674.004 559.675 673.812L562.299 668.04C562.922 666.669 564.005 665.562 565.358 664.91L565.49 664.848L571.264 662.223C571.454 662.133 571.613 661.99 571.722 661.812C571.832 661.633 571.887 661.426 571.881 661.216C571.874 661.007 571.807 660.804 571.687 660.632C571.575 660.471 571.421 660.343 571.242 660.264L571.206 660.248L551.51 652.673Z" fill="white"/>
<path d="M583.774 652.822V638.501C583.774 637.372 582.858 636.456 581.729 636.456H567.408C565.901 636.456 564.68 635.234 564.68 633.728C564.68 632.221 565.901 631 567.408 631H581.729C585.871 631 589.23 634.359 589.23 638.501V652.822C589.23 654.329 588.009 655.55 586.502 655.55C584.996 655.55 583.774 654.329 583.774 652.822Z" fill="white"/>
<path d="M583.774 683.728V669.407C583.774 667.901 584.996 666.68 586.502 666.68C588.009 666.68 589.23 667.901 589.23 669.407V683.728C589.23 687.871 585.871 691.23 581.728 691.23C580.222 691.23 579.001 690.009 579.001 688.502C579.001 686.996 580.222 685.774 581.728 685.774C582.858 685.774 583.774 684.858 583.774 683.728Z" fill="white"/>
<path d="M529 683.728V669.407C529 667.901 530.221 666.68 531.728 666.68C533.234 666.68 534.456 667.901 534.456 669.407V683.728C534.456 684.858 535.372 685.774 536.502 685.774H550.822C552.329 685.774 553.55 686.996 553.55 688.502C553.55 690.009 552.329 691.23 550.822 691.23H536.502C532.359 691.23 529 687.871 529 683.728Z" fill="white"/>
<path d="M529 652.822V638.501C529 634.359 532.359 631 536.502 631C538.008 631 539.229 632.221 539.229 633.728C539.229 635.234 538.008 636.456 536.502 636.456C535.372 636.456 534.456 637.372 534.456 638.501V652.822C534.456 654.329 533.234 655.55 531.728 655.55C530.221 655.55 529 654.329 529 652.822Z" fill="white"/>
<path d="M549.968 648.37L549.915 648.125L549.915 648.125L549.968 648.37ZM552.923 648.543L553.007 648.308L553.005 648.307L552.923 648.543ZM553.014 648.576L553.102 648.342L553.098 648.341L553.014 648.576ZM553.076 648.599L553.166 648.366L553.164 648.365L553.076 648.599ZM572.772 656.175L572.862 655.941L572.862 655.941L572.772 656.175ZM572.834 656.199L572.928 655.967L572.928 655.967L572.834 656.199ZM575.21 658.054L575.413 657.909L575.412 657.907L575.21 658.054ZM575.267 658.135L575.475 657.996L575.471 657.99L575.267 658.135ZM575.268 658.136L575.059 658.274L575.062 658.279L575.268 658.136ZM576.239 660.988L576.489 660.978L576.489 660.976L576.239 660.988ZM576.243 661.087H576.493L576.493 661.077L576.243 661.087ZM576.243 661.088H575.993L575.993 661.095L576.243 661.088ZM575.444 664.092L575.231 663.961L575.231 663.961L575.444 664.092ZM573.131 666.168L573.238 666.394V666.394L573.131 666.168ZM573.07 666.196L573.174 666.424L573.174 666.424L573.07 666.196ZM567.296 668.821L567.193 668.594L567.193 668.594L567.296 668.821ZM566.272 669.846L566.044 669.742V669.742L566.272 669.846ZM563.648 675.618L563.421 675.514V675.514L563.648 675.618ZM561.575 677.982L561.443 677.769V677.769L561.575 677.982ZM558.538 678.802L558.545 678.552H558.545L558.538 678.802ZM555.557 677.804L555.412 678.007L555.412 678.008L555.557 677.804ZM553.626 675.319L553.86 675.23L553.86 675.23L553.626 675.319ZM546.051 655.624L546.284 655.534L546.284 655.534L546.051 655.624ZM546.027 655.559L545.792 655.645L545.792 655.645L546.027 655.559ZM545.822 652.512L545.578 652.459V652.459L545.822 652.512ZM547.29 649.835L547.115 649.657L547.113 649.658L547.29 649.835ZM547.36 649.767L547.186 649.587L547.184 649.589L547.36 649.767ZM551.51 652.673L551.6 652.44L551.596 652.438L551.51 652.673ZM550.906 652.632L550.852 652.388L550.852 652.388L550.906 652.632ZM550.375 652.923L550.198 652.746L550.198 652.746L550.375 652.923ZM550.084 653.453L549.84 653.399L549.84 653.399L550.084 653.453ZM550.125 654.057L549.89 654.143L549.891 654.147L550.125 654.057ZM557.7 673.753L557.933 673.663L557.933 673.663L557.7 673.753ZM558.08 674.242L557.936 674.446L557.936 674.446L558.08 674.242ZM558.668 674.439L558.675 674.189H558.675L558.668 674.439ZM559.266 674.277L559.134 674.065L559.134 674.065L559.266 674.277ZM559.675 673.812L559.447 673.708L559.447 673.708L559.675 673.812ZM562.299 668.04L562.526 668.143V668.143L562.299 668.04ZM565.358 664.91L565.252 664.683L565.25 664.684L565.358 664.91ZM565.49 664.848L565.387 664.62L565.384 664.622L565.49 664.848ZM571.264 662.223L571.368 662.451L571.371 662.449L571.264 662.223ZM571.722 661.812L571.509 661.681L571.509 661.681L571.722 661.812ZM571.881 661.216L572.13 661.209L572.13 661.209L571.881 661.216ZM571.687 660.632L571.892 660.489L571.892 660.489L571.687 660.632ZM571.242 660.264L571.343 660.035L571.339 660.033L571.242 660.264ZM571.206 660.248L571.303 660.018L571.295 660.015L571.206 660.248ZM583.774 652.822H583.524V652.822H583.774ZM583.774 638.501H584.024V638.501L583.774 638.501ZM581.729 636.456L581.729 636.206H581.729V636.456ZM567.408 636.456V636.706V636.706V636.456ZM567.408 631V630.75V630.75V631ZM581.729 631L581.729 630.75H581.729V631ZM589.23 638.501H589.48V638.501L589.23 638.501ZM589.23 652.822H589.48V652.822H589.23ZM583.774 683.728L584.024 683.729V683.728H583.774ZM583.774 669.407H583.524V669.407H583.774ZM589.23 669.407H589.48V669.407H589.23ZM589.23 683.728L589.48 683.729V683.728H589.23ZM581.728 691.23V691.48H581.728L581.728 691.23ZM579.001 688.502H578.751V688.502H579.001ZM581.728 685.774V686.024H581.729L581.728 685.774ZM529 683.728H528.75V683.729L529 683.728ZM529 669.407H528.75V669.407H529ZM531.728 666.68V666.43V666.43V666.68ZM534.456 669.407H534.706V669.407H534.456ZM534.456 683.728H534.206V683.729L534.456 683.728ZM550.822 685.774V685.524V685.524V685.774ZM553.55 688.502H553.8V688.502H553.55ZM550.822 691.23V691.48V691.48V691.23ZM529 652.822H528.75V652.822H529ZM529 638.501L528.75 638.501V638.501H529ZM536.502 631L536.502 630.75H536.502V631ZM536.502 636.456V636.706H536.502L536.502 636.456ZM534.456 638.501L534.206 638.501V638.501H534.456ZM534.456 652.822H534.706V652.822H534.456ZM531.728 655.55L531.728 655.8H531.728V655.55ZM549.968 648.37L550.022 648.614C550.959 648.408 551.935 648.465 552.841 648.78L552.923 648.543L553.005 648.307C552.012 647.963 550.942 647.899 549.915 648.125L549.968 648.37ZM552.923 648.543L552.839 648.779L552.93 648.812L553.014 648.576L553.098 648.341L553.007 648.308L552.923 648.543ZM553.014 648.576L552.926 648.81L552.989 648.833L553.076 648.599L553.164 648.365L553.102 648.342L553.014 648.576ZM553.076 648.599L552.987 648.833L572.682 656.408L572.772 656.175L572.862 655.941L553.166 648.366L553.076 648.599ZM572.772 656.175L572.682 656.408C572.702 656.415 572.722 656.423 572.741 656.431L572.834 656.199L572.928 655.967C572.906 655.958 572.884 655.95 572.862 655.941L572.772 656.175ZM572.834 656.199L572.741 656.431C573.649 656.797 574.434 657.411 575.007 658.201L575.21 658.054L575.412 657.907C574.784 657.041 573.924 656.368 572.928 655.967L572.834 656.199ZM575.21 658.054L575.006 658.199L575.063 658.28L575.267 658.135L575.471 657.99L575.413 657.909L575.21 658.054ZM575.267 658.135L575.059 658.273L575.06 658.274L575.268 658.136L575.476 657.997L575.475 657.996L575.267 658.135ZM575.268 658.136L575.062 658.279C575.622 659.081 575.943 660.024 575.99 661L576.239 660.988L576.489 660.976C576.438 659.906 576.086 658.872 575.473 657.993L575.268 658.136ZM576.239 660.988L575.989 660.997L575.993 661.096L576.243 661.087L576.493 661.077L576.489 660.978L576.239 660.988ZM576.243 661.087H575.993V661.088H576.243H576.493V661.087H576.243ZM576.243 661.088L575.993 661.095C576.023 662.103 575.759 663.099 575.231 663.961L575.444 664.092L575.657 664.222C576.236 663.278 576.526 662.186 576.493 661.081L576.243 661.088ZM575.444 664.092L575.231 663.961C574.703 664.822 573.937 665.51 573.024 665.942L573.131 666.168L573.238 666.394C574.239 665.92 575.079 665.166 575.657 664.222L575.444 664.092ZM573.131 666.168L573.024 665.942C573.005 665.951 572.986 665.96 572.967 665.969L573.07 666.196L573.174 666.424C573.195 666.414 573.217 666.404 573.238 666.394L573.131 666.168ZM573.07 666.196L572.967 665.969L567.193 668.594L567.296 668.821L567.4 669.049L573.174 666.424L573.07 666.196ZM567.296 668.821L567.193 668.594C566.684 668.825 566.276 669.233 566.044 669.742L566.272 669.846L566.5 669.949C566.681 669.55 567.001 669.23 567.4 669.049L567.296 668.821ZM566.272 669.846L566.044 669.742L563.421 675.514L563.648 675.618L563.876 675.721L566.5 669.949L566.272 669.846ZM563.648 675.618L563.421 675.514C562.998 676.444 562.31 677.229 561.443 677.769L561.575 677.982L561.707 678.194C562.658 677.601 563.412 676.741 563.876 675.721L563.648 675.618ZM561.575 677.982L561.443 677.769C560.575 678.31 559.567 678.582 558.545 678.552L558.538 678.802L558.53 679.052C559.651 679.085 560.756 678.786 561.707 678.194L561.575 677.982ZM558.538 678.802L558.545 678.552C557.523 678.521 556.534 678.189 555.701 677.6L555.557 677.804L555.412 678.008C556.325 678.654 557.41 679.018 558.53 679.052L558.538 678.802ZM555.557 677.804L555.701 677.6C554.868 677.009 554.226 676.184 553.86 675.23L553.626 675.319L553.393 675.409C553.795 676.455 554.498 677.36 555.412 678.007L555.557 677.804ZM553.626 675.319L553.86 675.23L546.284 655.534L546.051 655.624L545.818 655.714L553.393 675.409L553.626 675.319ZM546.051 655.624L546.284 655.534C546.276 655.513 546.269 655.493 546.261 655.473L546.027 655.559L545.792 655.645C545.8 655.668 545.809 655.691 545.818 655.714L546.051 655.624ZM546.027 655.559L546.261 655.473C545.92 654.542 545.853 653.534 546.066 652.566L545.822 652.512L545.578 652.459C545.344 653.519 545.418 654.625 545.792 655.645L546.027 655.559ZM545.822 652.512L546.066 652.566C546.28 651.599 546.766 650.713 547.467 650.012L547.29 649.835L547.113 649.658C546.345 650.426 545.812 651.398 545.578 652.459L545.822 652.512ZM547.29 649.835L547.465 650.014L547.535 649.946L547.36 649.767L547.184 649.589L547.115 649.657L547.29 649.835ZM547.36 649.767L547.533 649.947C548.223 649.282 549.085 648.82 550.022 648.614L549.968 648.37L549.915 648.125C548.887 648.351 547.943 648.858 547.186 649.587L547.36 649.767ZM551.51 652.673L551.596 652.438C551.358 652.351 551.1 652.333 550.852 652.388L550.906 652.632L550.96 652.876C551.114 652.842 551.275 652.853 551.424 652.908L551.51 652.673ZM550.906 652.632L550.852 652.388C550.605 652.442 550.378 652.566 550.198 652.746L550.375 652.923L550.552 653.099C550.664 652.988 550.805 652.91 550.96 652.876L550.906 652.632ZM550.375 652.923L550.198 652.746C550.019 652.925 549.895 653.152 549.84 653.399L550.084 653.453L550.328 653.507C550.362 653.353 550.44 653.211 550.552 653.099L550.375 652.923ZM550.084 653.453L549.84 653.399C549.785 653.647 549.803 653.905 549.89 654.143L550.125 654.057L550.359 653.971C550.305 653.823 550.294 653.662 550.328 653.507L550.084 653.453ZM550.125 654.057L549.891 654.147L557.466 673.843L557.7 673.753L557.933 673.663L550.358 653.967L550.125 654.057ZM557.7 673.753L557.466 673.843C557.56 674.086 557.723 674.296 557.936 674.446L558.08 674.242L558.225 674.038C558.093 673.945 557.991 673.814 557.933 673.663L557.7 673.753ZM558.08 674.242L557.936 674.446C558.148 674.597 558.4 674.681 558.661 674.689L558.668 674.439L558.675 674.189C558.514 674.184 558.357 674.132 558.225 674.038L558.08 674.242ZM558.668 674.439L558.661 674.689C558.921 674.697 559.178 674.627 559.399 674.49L559.266 674.277L559.134 674.065C558.997 674.151 558.837 674.194 558.675 674.189L558.668 674.439ZM559.266 674.277L559.399 674.49C559.62 674.352 559.795 674.152 559.903 673.915L559.675 673.812L559.447 673.708C559.381 673.855 559.272 673.98 559.134 674.065L559.266 674.277ZM562.299 668.04L562.526 668.143C563.125 666.826 564.166 665.762 565.467 665.135L565.358 664.91L565.25 664.684C563.844 665.362 562.718 666.512 562.071 667.936L562.299 668.04ZM565.358 664.91L565.464 665.136L565.596 665.074L565.49 664.848L565.384 664.622L565.253 664.683L565.358 664.91ZM565.49 664.848L565.594 665.076L571.368 662.451L571.264 662.223L571.161 661.995L565.387 664.62L565.49 664.848ZM571.264 662.223L571.371 662.449C571.604 662.338 571.801 662.162 571.936 661.942L571.722 661.812L571.509 661.681C571.425 661.818 571.303 661.928 571.157 661.997L571.264 662.223ZM571.722 661.812L571.935 661.942C572.07 661.722 572.138 661.467 572.13 661.209L571.881 661.216L571.631 661.224C571.635 661.385 571.593 661.544 571.509 661.681L571.722 661.812ZM571.881 661.216L572.13 661.209C572.123 660.951 572.04 660.701 571.892 660.489L571.687 660.632L571.482 660.775C571.574 660.907 571.626 661.063 571.631 661.224L571.881 661.216ZM571.687 660.632L571.892 660.489C571.754 660.29 571.564 660.133 571.343 660.035L571.242 660.264L571.14 660.492C571.277 660.553 571.396 660.651 571.482 660.775L571.687 660.632ZM571.242 660.264L571.339 660.033L571.303 660.018L571.206 660.248L571.108 660.478L571.144 660.494L571.242 660.264ZM571.206 660.248L571.295 660.015L551.6 652.44L551.51 652.673L551.42 652.906L571.116 660.482L571.206 660.248ZM559.675 673.812L559.903 673.915L562.526 668.143L562.299 668.04L562.071 667.936L559.447 673.708L559.675 673.812ZM583.774 652.822H584.024V638.501H583.774H583.524V652.822H583.774ZM583.774 638.501L584.024 638.501C584.024 637.234 582.996 636.206 581.729 636.206L581.729 636.456L581.729 636.706C582.72 636.706 583.524 637.51 583.524 638.501L583.774 638.501ZM581.729 636.456V636.206H567.408V636.456V636.706H581.729V636.456ZM567.408 636.456V636.206C566.039 636.206 564.93 635.096 564.93 633.728H564.68H564.43C564.43 635.372 565.763 636.706 567.408 636.706V636.456ZM564.68 633.728H564.93C564.93 632.359 566.039 631.25 567.408 631.25V631V630.75C565.763 630.75 564.43 632.083 564.43 633.728H564.68ZM567.408 631V631.25H581.729V631V630.75H567.408V631ZM581.729 631L581.729 631.25C585.733 631.25 588.98 634.497 588.98 638.501L589.23 638.501L589.48 638.501C589.48 634.22 586.01 630.75 581.729 630.75L581.729 631ZM589.23 638.501H588.98V652.822H589.23H589.48V638.501H589.23ZM589.23 652.822H588.98C588.98 654.191 587.871 655.3 586.502 655.3V655.55V655.8C588.147 655.8 589.48 654.467 589.48 652.822H589.23ZM586.502 655.55V655.3C585.134 655.3 584.024 654.191 584.024 652.822H583.774H583.524C583.524 654.467 584.858 655.8 586.502 655.8V655.55ZM583.774 683.728H584.024V669.407H583.774H583.524V683.728H583.774ZM583.774 669.407H584.024C584.024 668.039 585.134 666.93 586.502 666.93V666.68V666.43C584.857 666.43 583.524 667.763 583.524 669.407H583.774ZM586.502 666.68V666.93C587.871 666.93 588.98 668.039 588.98 669.407H589.23H589.48C589.48 667.763 588.147 666.43 586.502 666.43V666.68ZM589.23 669.407H588.98V683.728H589.23H589.48V669.407H589.23ZM589.23 683.728L588.98 683.728C588.98 687.733 585.733 690.98 581.728 690.98L581.728 691.23L581.728 691.48C586.009 691.48 589.48 688.009 589.48 683.729L589.23 683.728ZM581.728 691.23V690.98C580.36 690.98 579.251 689.871 579.251 688.502H579.001H578.751C578.751 690.147 580.084 691.48 581.728 691.48V691.23ZM579.001 688.502H579.251C579.251 687.134 580.36 686.024 581.728 686.024V685.774V685.524C580.084 685.524 578.751 686.857 578.751 688.502H579.001ZM581.728 685.774L581.729 686.024C582.996 686.024 584.024 684.996 584.024 683.729L583.774 683.728L583.524 683.728C583.524 684.72 582.72 685.524 581.728 685.524L581.728 685.774ZM529 683.728H529.25V669.407H529H528.75V683.728H529ZM529 669.407H529.25C529.25 668.039 530.359 666.93 531.728 666.93V666.68V666.43C530.083 666.43 528.75 667.763 528.75 669.407H529ZM531.728 666.68V666.93C533.096 666.93 534.206 668.039 534.206 669.407H534.456H534.706C534.706 667.763 533.372 666.43 531.728 666.43V666.68ZM534.456 669.407H534.206V683.728H534.456H534.706V669.407H534.456ZM534.456 683.728L534.206 683.729C534.206 684.996 535.234 686.024 536.502 686.024V685.774V685.524C535.51 685.524 534.706 684.72 534.706 683.728L534.456 683.728ZM536.502 685.774V686.024H550.822V685.774V685.524H536.502V685.774ZM550.822 685.774V686.024C552.191 686.024 553.3 687.134 553.3 688.502H553.55H553.8C553.8 686.857 552.467 685.524 550.822 685.524V685.774ZM553.55 688.502H553.3C553.3 689.871 552.191 690.98 550.822 690.98V691.23V691.48C552.467 691.48 553.8 690.147 553.8 688.502H553.55ZM550.822 691.23V690.98H536.502V691.23V691.48H550.822V691.23ZM536.502 691.23V690.98C532.497 690.98 529.25 687.733 529.25 683.728L529 683.728L528.75 683.729C528.75 688.009 532.221 691.48 536.502 691.48V691.23ZM529 652.822H529.25V638.501H529H528.75V652.822H529ZM529 638.501L529.25 638.501C529.25 634.497 532.497 631.25 536.502 631.25V631V630.75C532.221 630.75 528.75 634.22 528.75 638.501L529 638.501ZM536.502 631L536.502 631.25C537.87 631.25 538.979 632.359 538.979 633.728H539.229H539.479C539.479 632.083 538.146 630.75 536.502 630.75L536.502 631ZM539.229 633.728H538.979C538.979 635.096 537.87 636.206 536.502 636.206L536.502 636.456L536.502 636.706C538.146 636.706 539.479 635.372 539.479 633.728H539.229ZM536.502 636.456V636.206C535.234 636.206 534.206 637.233 534.206 638.501L534.456 638.501L534.706 638.501C534.706 637.51 535.51 636.706 536.502 636.706V636.456ZM534.456 638.501H534.206V652.822H534.456H534.706V638.501H534.456ZM534.456 652.822H534.206C534.206 654.191 533.096 655.3 531.728 655.3V655.55V655.8C533.372 655.8 534.706 654.467 534.706 652.822H534.456ZM531.728 655.55L531.728 655.3C530.359 655.3 529.25 654.191 529.25 652.822H529H528.75C528.75 654.467 530.083 655.8 531.728 655.8L531.728 655.55Z" fill="black"/>
</g>
</g>
</g>
</g>
<defs>
<clipPath id="clip0_0_1">
<rect width="3300" height="2200" fill="white"/>
</clipPath>
</defs>
</svg>
