<svg width="3300" height="2200" viewBox="0 0 3300 2200" fill="none" xmlns="http://www.w3.org/2000/svg">
<rect width="3300" height="2200" fill="#1E1E1E"/>
<g id="cuyor.instructor.icon" clip-path="url(#clip0_0_1)">
<g id="Notes">
<path id="artboard" d="M3300 0H0V2200H3300V0Z" fill="white"/>
<path id="Vector" d="M263 292H3036" stroke="black" stroke-width="0.5"/>
<text id="Weight/Scale Variations" fill="black" style="white-space: pre" xml:space="preserve" font-family="Inter" font-size="13" font-weight="bold" letter-spacing="0em"><tspan x="263" y="321.727">Weight/Scale Variations</tspan></text>
<text id="Ultralight" fill="black" style="white-space: pre" xml:space="preserve" font-family="Inter" font-size="13" letter-spacing="0em"><tspan x="531.661" y="321.727">Ultralight</tspan></text>
<text id="Thin" fill="black" style="white-space: pre" xml:space="preserve" font-family="Inter" font-size="13" letter-spacing="0em"><tspan x="843.066" y="321.727">Thin</tspan></text>
<text id="Light" fill="black" style="white-space: pre" xml:space="preserve" font-family="Inter" font-size="13" letter-spacing="0em"><tspan x="1137.77" y="321.727">Light</tspan></text>
<text id="Regular" fill="black" style="white-space: pre" xml:space="preserve" font-family="Inter" font-size="13" letter-spacing="0em"><tspan x="1426.58" y="321.727">Regular</tspan></text>
<text id="Medium" fill="black" style="white-space: pre" xml:space="preserve" font-family="Inter" font-size="13" letter-spacing="0em"><tspan x="1721.99" y="321.727">Medium</tspan></text>
<text id="Semibold" fill="black" style="white-space: pre" xml:space="preserve" font-family="Inter" font-size="13" letter-spacing="0em"><tspan x="2014.65" y="321.727">Semibold</tspan></text>
<text id="Bold" fill="black" style="white-space: pre" xml:space="preserve" font-family="Inter" font-size="13" letter-spacing="0em"><tspan x="2326.29" y="321.727">Bold</tspan></text>
<text id="Heavy" fill="black" style="white-space: pre" xml:space="preserve" font-family="Inter" font-size="13" letter-spacing="0em"><tspan x="2617.32" y="321.727">Heavy</tspan></text>
<text id="Black" fill="black" style="white-space: pre" xml:space="preserve" font-family="Inter" font-size="13" letter-spacing="0em"><tspan x="2916.8" y="321.727">Black</tspan></text>
<path id="Vector_2" d="M263 1903H3036" stroke="black" stroke-width="0.5"/>
<g id="Group">
<path id="Vector_3" d="M272.248 1933.83C276.604 1933.83 280.139 1930.3 280.139 1925.95C280.139 1921.59 276.604 1918.07 272.248 1918.07C267.902 1918.07 264.367 1921.59 264.367 1925.95C264.367 1930.3 267.902 1933.83 272.248 1933.83ZM272.248 1932.35C268.713 1932.35 265.861 1929.48 265.861 1925.95C265.861 1922.41 268.713 1919.55 272.248 1919.55C275.783 1919.55 278.645 1922.41 278.645 1925.95C278.645 1929.48 275.783 1932.35 272.248 1932.35ZM272.971 1928.79V1923.1C272.971 1922.65 272.678 1922.35 272.229 1922.35C271.799 1922.35 271.506 1922.65 271.506 1923.1V1928.79C271.506 1929.23 271.799 1929.53 272.229 1929.53C272.678 1929.53 272.971 1929.23 272.971 1928.79ZM269.406 1926.67H275.09C275.529 1926.67 275.832 1926.38 275.832 1925.95C275.832 1925.51 275.529 1925.21 275.09 1925.21H269.406C268.957 1925.21 268.654 1925.51 268.654 1925.95C268.654 1926.38 268.957 1926.67 269.406 1926.67Z" fill="black"/>
</g>
<g id="Group_2">
<path id="Vector_4" d="M293.215 1935.91C298.713 1935.91 303.176 1931.45 303.176 1925.95C303.176 1920.45 298.713 1915.99 293.215 1915.99C287.717 1915.99 283.254 1920.45 283.254 1925.95C283.254 1931.45 287.717 1935.91 293.215 1935.91ZM293.215 1934.25C288.625 1934.25 284.914 1930.54 284.914 1925.95C284.914 1921.36 288.625 1917.65 293.215 1917.65C297.805 1917.65 301.516 1921.36 301.516 1925.95C301.516 1930.54 297.805 1934.25 293.215 1934.25ZM294.025 1929.63V1922.25C294.025 1921.75 293.684 1921.41 293.195 1921.41C292.717 1921.41 292.385 1921.75 292.385 1922.25V1929.63C292.385 1930.12 292.717 1930.46 293.195 1930.46C293.684 1930.46 294.025 1930.13 294.025 1929.63ZM289.514 1926.75H296.906C297.395 1926.75 297.736 1926.43 297.736 1925.95C297.736 1925.46 297.395 1925.12 296.906 1925.12H289.514C289.016 1925.12 288.684 1925.46 288.684 1925.95C288.684 1926.43 289.016 1926.75 289.514 1926.75Z" fill="black"/>
</g>
<g id="Group_3">
<path id="Vector_5" d="M319.895 1938.66C326.916 1938.66 332.619 1932.97 332.619 1925.95C332.619 1918.93 326.916 1913.22 319.895 1913.22C312.873 1913.22 307.18 1918.93 307.18 1925.95C307.18 1932.97 312.873 1938.66 319.895 1938.66ZM319.895 1936.85C313.869 1936.85 308.996 1931.97 308.996 1925.95C308.996 1919.92 313.869 1915.05 319.895 1915.05C325.92 1915.05 330.793 1919.92 330.793 1925.95C330.793 1931.97 325.92 1936.85 319.895 1936.85ZM320.783 1930.78V1921.09C320.783 1920.54 320.412 1920.16 319.875 1920.16C319.357 1920.16 318.986 1920.54 318.986 1921.09V1930.78C318.986 1931.32 319.357 1931.7 319.875 1931.7C320.412 1931.7 320.783 1931.33 320.783 1930.78ZM315.041 1926.83H324.738C325.275 1926.83 325.656 1926.47 325.656 1925.95C325.656 1925.4 325.285 1925.03 324.738 1925.03H315.041C314.494 1925.03 314.123 1925.4 314.123 1925.95C314.123 1926.47 314.494 1926.83 315.041 1926.83Z" fill="black"/>
</g>
<text id="Design Variations" fill="black" style="white-space: pre" xml:space="preserve" font-family="Inter" font-size="13" font-weight="bold" letter-spacing="0em"><tspan x="263" y="1952.73">Design Variations</tspan></text>
<text id="Symbols are supported in up to nine weights and three scales." fill="black" style="white-space: pre" xml:space="preserve" font-family="Inter" font-size="13" letter-spacing="0em"><tspan x="263" y="1970.73">Symbols are supported in up to nine weights and three scales.</tspan></text>
<text id="For optimal layout with text and other symbols, vertically align" fill="black" style="white-space: pre" xml:space="preserve" font-family="Inter" font-size="13" letter-spacing="0em"><tspan x="263" y="1988.73">For optimal layout with text and other symbols, vertically align</tspan></text>
<text id="symbols with the adjacent text." fill="black" style="white-space: pre" xml:space="preserve" font-family="Inter" font-size="13" letter-spacing="0em"><tspan x="263" y="2006.73">symbols with the adjacent text.</tspan></text>
<path id="Vector_6" d="M776 1919V1933" stroke="#00AEEF" stroke-width="0.5"/>
<g id="Group_4">
<path id="Vector_7" d="M779.311 1933.16C779.828 1933.16 780.082 1932.96 780.268 1932.41L784.379 1920.91H784.428L788.549 1932.41C788.734 1932.96 788.988 1933.16 789.496 1933.16C790.014 1933.16 790.346 1932.84 790.346 1932.36C790.346 1932.19 790.316 1932.03 790.238 1931.83L785.658 1919.63C785.434 1919.04 785.033 1918.73 784.408 1918.73C783.803 1918.73 783.393 1919.03 783.178 1919.62L778.598 1931.84C778.52 1932.04 778.49 1932.2 778.49 1932.37C778.49 1932.85 778.803 1933.16 779.311 1933.16ZM781.352 1928.97H787.484C787.885 1928.97 788.217 1928.63 788.217 1928.23C788.217 1927.82 787.885 1927.5 787.484 1927.5H781.352C780.951 1927.5 780.619 1927.82 780.619 1928.23C780.619 1928.63 780.951 1928.97 781.352 1928.97Z" fill="black"/>
</g>
<path id="Vector_8" d="M792.836 1919V1933" stroke="#00AEEF" stroke-width="0.5"/>
<text id="Margins" fill="black" style="white-space: pre" xml:space="preserve" font-family="Inter" font-size="13" font-weight="bold" letter-spacing="0em"><tspan x="776" y="1952.73">Margins</tspan></text>
<text id="Leading and trailing margins on the left and right side of each symbol" fill="black" style="white-space: pre" xml:space="preserve" font-family="Inter" font-size="13" letter-spacing="0em"><tspan x="776" y="1970.73">Leading and trailing margins on the left and right side of each symbol</tspan></text>
<text id="can be adjusted by modifying the x-location of the margin guidelines." fill="black" style="white-space: pre" xml:space="preserve" font-family="Inter" font-size="13" letter-spacing="0em"><tspan x="776" y="1988.73">can be adjusted by modifying the x-location of the margin guidelines.</tspan></text>
<text id="Modifications are automatically applied proportionally to all" fill="black" style="white-space: pre" xml:space="preserve" font-family="Inter" font-size="13" letter-spacing="0em"><tspan x="776" y="2006.73">Modifications are automatically applied proportionally to all</tspan></text>
<text id="scales and weights." fill="black" style="white-space: pre" xml:space="preserve" font-family="Inter" font-size="13" letter-spacing="0em"><tspan x="776" y="2024.73">scales and weights.</tspan></text>
<g id="Group_5">
<path id="Vector_9" d="M1291.84 1935.63L1293.41 1937.2C1294.27 1938.08 1295.28 1938.02 1296.19 1936.99L1308.33 1923.35L1307.35 1922.37L1295.3 1935.91C1294.94 1936.3 1294.6 1936.4 1294.14 1935.93L1293.1 1934.9C1292.64 1934.45 1292.74 1934.11 1293.14 1933.74L1306.64 1921.31L1305.66 1920.34L1292.05 1932.86C1291.05 1933.78 1290.98 1934.76 1291.84 1935.63ZM1300.82 1916.13C1300.41 1916.54 1300.37 1917.11 1300.6 1917.49C1300.83 1917.85 1301.29 1918.1 1301.92 1917.94C1303.09 1917.61 1304.44 1917.46 1305.7 1918.13L1305.16 1919.55C1304.84 1920.35 1305.01 1920.93 1305.5 1921.44L1307.55 1923.5C1308.02 1923.98 1308.46 1923.99 1308.97 1923.89L1309.86 1923.74L1310.38 1924.25L1310.34 1924.7C1310.32 1925.16 1310.44 1925.56 1310.89 1926L1311.57 1926.66C1312.03 1927.12 1312.67 1927.16 1313.13 1926.7L1315.73 1924.09C1316.19 1923.62 1316.16 1923.02 1315.69 1922.56L1315.01 1921.88C1314.57 1921.44 1314.19 1921.27 1313.74 1921.3L1313.27 1921.35L1312.78 1920.86L1312.98 1919.92C1313.11 1919.38 1312.93 1918.93 1312.41 1918.4L1310.15 1916.16C1307.56 1913.6 1303.03 1913.96 1300.82 1916.13ZM1302.23 1916.54C1303.99 1915.27 1307.43 1915.41 1308.97 1916.94L1311.43 1919.38C1311.64 1919.58 1311.68 1919.74 1311.62 1920.04L1311.32 1921.37L1312.67 1922.71L1313.55 1922.66C1313.77 1922.65 1313.85 1922.67 1314.02 1922.83L1314.53 1923.33L1312.36 1925.5L1311.86 1925C1311.69 1924.83 1311.67 1924.76 1311.68 1924.52L1311.73 1923.65L1310.4 1922.31L1309.03 1922.54C1308.75 1922.6 1308.62 1922.58 1308.39 1922.37L1306.61 1920.59C1306.39 1920.38 1306.37 1920.25 1306.51 1919.91L1307.43 1917.62C1306.21 1916.35 1304.02 1916.12 1302.31 1916.7C1302.17 1916.75 1302.12 1916.62 1302.23 1916.54Z" fill="black"/>
</g>
<text id="Exporting" fill="black" style="white-space: pre" xml:space="preserve" font-family="Inter" font-size="13" font-weight="bold" letter-spacing="0em"><tspan x="1289" y="1952.73">Exporting</tspan></text>
<text id="Symbols should be outlined when exporting to ensure the" fill="black" style="white-space: pre" xml:space="preserve" font-family="Inter" font-size="13" letter-spacing="0em"><tspan x="1289" y="1970.73">Symbols should be outlined when exporting to ensure the</tspan></text>
<text id="design is preserved when submitting to Xcode." fill="black" style="white-space: pre" xml:space="preserve" font-family="Inter" font-size="13" letter-spacing="0em"><tspan x="1289" y="1988.73">design is preserved when submitting to Xcode.</tspan></text>
<text id="template-version" fill="black" style="white-space: pre" xml:space="preserve" font-family="Inter" font-size="13" letter-spacing="0em"><tspan x="2948.26" y="1932.73">Template v.7.0</tspan></text>
<text id="Requires Xcode 26 or greater" fill="black" style="white-space: pre" xml:space="preserve" font-family="Inter" font-size="13" letter-spacing="0em"><tspan x="2856.34" y="1950.73">Requires Xcode 26 or greater</tspan></text>
<text id="descriptive-name" fill="black" style="white-space: pre" xml:space="preserve" font-family="Inter" font-size="13" letter-spacing="0em"><tspan x="2844.2" y="1968.73">Generated from custom.play.fill</tspan></text>
<text id="Typeset at 100.0 points" fill="black" style="white-space: pre" xml:space="preserve" font-family="Inter" font-size="13" letter-spacing="0em"><tspan x="2892.56" y="1986.73">Typeset at 100.0 points</tspan></text>
<text id="Small" fill="black" style="white-space: pre" xml:space="preserve" font-family="Inter" font-size="13" letter-spacing="0em"><tspan x="263" y="725.727">Small</tspan></text>
<text id="Medium_2" fill="black" style="white-space: pre" xml:space="preserve" font-family="Inter" font-size="13" letter-spacing="0em"><tspan x="263" y="1155.73">Medium</tspan></text>
<text id="Large" fill="black" style="white-space: pre" xml:space="preserve" font-family="Inter" font-size="13" letter-spacing="0em"><tspan x="263" y="1585.73">Large</tspan></text>
</g>
<g id="Guides">
<g id="H-reference">
<path id="Vector_10" d="M339.994 696H342.638L368.329 628.868H369.031V625.541H367.123L339.994 696ZM350.689 671.52H385.982L385.232 669.272H351.439L350.689 671.52ZM394.12 696H396.764L369.639 625.541H368.433V628.868L394.12 696Z" fill="#27AAE1"/>
</g>
<path id="Baseline-S" d="M263 696H3036" stroke="#27AAE1" stroke-width="0.5"/>
<path id="Capline-S" d="M263 625.541H3036" stroke="#27AAE1" stroke-width="0.5"/>
<g id="H-reference_2">
<path id="Vector_11" d="M339.994 1126H342.638L368.329 1058.87H369.031V1055.54H367.123L339.994 1126ZM350.689 1101.52H385.982L385.232 1099.27H351.439L350.689 1101.52ZM394.12 1126H396.764L369.639 1055.54H368.433V1058.87L394.12 1126Z" fill="#27AAE1"/>
</g>
<path id="Baseline-M" d="M263 1126H3036" stroke="#27AAE1" stroke-width="0.5"/>
<path id="Capline-M" d="M263 1055.54H3036" stroke="#27AAE1" stroke-width="0.5"/>
<g id="H-reference_3">
<path id="Vector_12" d="M339.994 1556H342.638L368.329 1488.87H369.031V1485.54H367.123L339.994 1556ZM350.689 1531.52H385.982L385.232 1529.27H351.439L350.689 1531.52ZM394.12 1556H396.764L369.639 1485.54H368.433V1488.87L394.12 1556Z" fill="#27AAE1"/>
</g>
<path id="Baseline-L" d="M263 1556H3036" stroke="#27AAE1" stroke-width="0.5"/>
<path id="Capline-L" d="M263 1485.54H3036" stroke="#27AAE1" stroke-width="0.5"/>
<path id="right-margin-Black-S" d="M2973.49 600.785V720.121" stroke="#00AEEF" stroke-width="0.5"/>
<path id="left-margin-Black-S" d="M2893.31 600.785V720.121" stroke="#00AEEF" stroke-width="0.5"/>
<path id="right-margin-Regular-S" d="M1484.56 600.785V720.121" stroke="#00AEEF" stroke-width="0.5"/>
<path id="left-margin-Regular-S" d="M1415.13 600.785V720.121" stroke="#00AEEF" stroke-width="0.5"/>
<path id="right-margin-Ultralight-S" d="M591.885 600.785V720.121" stroke="#00AEEF" stroke-width="0.5"/>
<path id="left-margin-Ultralight-S" d="M527.537 600.785V720.121" stroke="#00AEEF" stroke-width="0.5"/>
</g>
<g id="Symbols">
<g id="Black-S">
<path id="Vector_13" d="M2907.85 622.323C2910.34 621.774 2912.94 621.928 2915.35 622.764L2915.58 622.847L2915.74 622.906L2965.72 642.132C2965.78 642.153 2965.83 642.173 2965.88 642.194C2968.3 643.167 2970.39 644.8 2971.91 646.902L2972.06 647.107L2972.06 647.109C2973.55 649.243 2974.4 651.753 2974.52 654.348L2974.53 654.599V654.603C2974.61 657.284 2973.91 659.934 2972.51 662.226C2971.1 664.515 2969.06 666.346 2966.64 667.496C2966.58 667.52 2966.53 667.543 2966.48 667.567L2951.83 674.229C2950.67 674.753 2949.75 675.677 2949.23 676.829L2942.57 691.479C2941.44 693.953 2939.61 696.041 2937.31 697.479C2935 698.917 2932.32 699.641 2929.6 699.56C2926.88 699.479 2924.25 698.596 2922.03 697.027L2922.03 697.026C2919.81 695.453 2918.11 693.261 2917.13 690.722L2897.91 640.734C2897.88 640.679 2897.86 640.624 2897.84 640.569C2896.94 638.094 2896.76 635.411 2897.32 632.838C2897.89 630.264 2899.19 627.906 2901.05 626.043L2901.23 625.87C2903.06 624.1 2905.35 622.871 2907.85 622.323ZM2911.76 633.245C2911.27 633.065 2910.74 633.029 2910.23 633.141C2909.72 633.253 2909.25 633.509 2908.88 633.878C2908.51 634.248 2908.25 634.715 2908.14 635.225C2908.03 635.736 2908.06 636.267 2908.24 636.758L2927.47 686.746C2927.66 687.247 2928 687.679 2928.44 687.989C2928.87 688.298 2929.39 688.472 2929.93 688.488C2930.46 688.504 2930.99 688.361 2931.45 688.078C2931.9 687.794 2932.26 687.383 2932.48 686.895L2939.14 672.246C2940.72 668.767 2943.47 665.958 2946.91 664.302L2947.24 664.145L2961.9 657.483C2962.38 657.255 2962.78 656.893 2963.06 656.439C2963.34 655.985 2963.48 655.46 2963.46 654.928C2963.45 654.397 2963.28 653.881 2962.97 653.444C2962.69 653.035 2962.29 652.712 2961.84 652.51L2961.75 652.471L2911.76 633.245ZM2937.81 682.77L2937.81 682.77C2937.81 682.769 2937.81 682.768 2937.81 682.766L2937.81 682.77Z" fill="white" stroke="black" stroke-width="0.5" stroke-linejoin="round"/>
</g>
<g id="Regular-S">
<path id="Vector_14" d="M1426.11 627.271C1428.21 626.81 1430.39 626.939 1432.41 627.642L1432.61 627.711L1432.74 627.761L1474.73 643.913C1474.78 643.93 1474.82 643.947 1474.87 643.965C1476.9 644.782 1478.65 646.154 1479.93 647.92L1480.05 648.092L1480.05 648.094C1481.3 649.887 1482.02 651.995 1482.13 654.175L1482.13 654.386V654.389C1482.2 656.641 1481.61 658.867 1480.43 660.793C1479.25 662.716 1477.54 664.255 1475.5 665.22C1475.46 665.24 1475.41 665.26 1475.37 665.28L1463.06 670.877C1462.09 671.317 1461.31 672.093 1460.87 673.061L1455.28 685.368C1454.34 687.447 1452.8 689.2 1450.86 690.408C1448.92 691.616 1446.67 692.225 1444.38 692.157C1442.1 692.089 1439.89 691.347 1438.03 690.029L1438.03 690.028C1436.16 688.707 1434.73 686.865 1433.91 684.732L1417.76 642.738C1417.74 642.692 1417.73 642.646 1417.71 642.6C1416.95 640.52 1416.8 638.267 1417.27 636.104C1417.75 633.942 1418.84 631.961 1420.4 630.396L1420.55 630.251C1422.09 628.764 1424.02 627.732 1426.11 627.271ZM1429.4 636.447C1428.99 636.295 1428.54 636.265 1428.11 636.359C1427.68 636.454 1427.29 636.669 1426.98 636.979C1426.67 637.289 1426.45 637.682 1426.36 638.11C1426.27 638.539 1426.3 638.986 1426.45 639.398L1442.6 681.392C1442.76 681.812 1443.04 682.176 1443.41 682.436C1443.78 682.696 1444.21 682.842 1444.66 682.855C1445.11 682.869 1445.56 682.749 1445.94 682.511C1446.32 682.273 1446.62 681.927 1446.81 681.517L1452.4 669.211C1453.73 666.288 1456.04 663.928 1458.93 662.537L1459.21 662.406L1471.52 656.809C1471.92 656.617 1472.26 656.313 1472.5 655.931C1472.73 655.55 1472.85 655.109 1472.83 654.663C1472.82 654.216 1472.68 653.782 1472.42 653.416C1472.18 653.072 1471.85 652.801 1471.47 652.631L1471.39 652.598L1429.4 636.447ZM1451.28 678.052L1451.28 678.052C1451.28 678.051 1451.28 678.05 1451.28 678.049L1451.28 678.052Z" fill="white" stroke="black" stroke-width="0.5" stroke-linejoin="round"/>
</g>
<g id="Ultralight-S">
<path id="Vector_15" d="M537.426 631.251C539.363 630.825 541.379 630.944 543.251 631.593L543.431 631.658L543.554 631.704L582.383 646.638C582.424 646.654 582.465 646.67 582.505 646.686C584.382 647.441 586.004 648.71 587.188 650.343L587.301 650.502L587.302 650.504C588.458 652.162 589.121 654.111 589.218 656.126L589.225 656.322V656.324C589.287 658.407 588.74 660.465 587.649 662.246C586.56 664.024 584.976 665.447 583.09 666.339C583.05 666.358 583.01 666.376 582.971 666.395L571.587 671.57C570.692 671.977 569.975 672.694 569.568 673.589L564.396 684.968C563.522 686.89 562.1 688.512 560.308 689.629C558.515 690.746 556.432 691.309 554.32 691.246C552.208 691.183 550.164 690.497 548.444 689.278L548.443 689.277C546.72 688.056 545.396 686.352 544.637 684.381L529.704 645.552C529.687 645.509 529.671 645.467 529.655 645.424C528.951 643.501 528.811 641.417 529.252 639.418C529.694 637.419 530.698 635.587 532.146 634.14L532.283 634.006C533.709 632.631 535.489 631.677 537.426 631.251ZM540.465 639.735C540.084 639.595 539.671 639.567 539.275 639.654C538.878 639.741 538.515 639.94 538.228 640.227C537.941 640.514 537.742 640.877 537.654 641.273C537.567 641.669 537.595 642.082 537.734 642.463L552.668 681.292C552.818 681.681 553.079 682.017 553.418 682.257C553.758 682.498 554.161 682.633 554.577 682.645C554.993 682.658 555.404 682.547 555.757 682.326C556.11 682.106 556.39 681.787 556.562 681.408L561.735 670.029C562.963 667.327 565.099 665.145 567.767 663.858L568.027 663.737L579.409 658.562C579.783 658.385 580.097 658.103 580.313 657.751C580.529 657.398 580.637 656.991 580.625 656.577C580.612 656.164 580.48 655.764 580.244 655.425C580.022 655.107 579.718 654.856 579.365 654.699L579.294 654.669L540.465 639.735ZM560.699 678.203L560.699 678.204C560.699 678.203 560.698 678.202 560.698 678.201L560.699 678.203Z" fill="white" stroke="black" stroke-width="0.5" stroke-linejoin="round"/>
</g>
</g>
</g>
<defs>
<clipPath id="clip0_0_1">
<rect width="3300" height="2200" fill="white"/>
</clipPath>
</defs>
</svg>
